  0
SECTION
  2
HEADER
  9
$ACADVER
  1
AC1015
  9
$ACADMAINTVER
 70
     6
  9
$DWGCODEPAGE
  3
ANSI_1252
  9
$INSBASE
 10
0.0
 20
0.0
 30
0.0
  9
$EXTMIN
 10
-184.31
 20
-30.0
 30
0.0
  9
$EXTMAX
 10
184.31
 20
30.0
 30
0.0
  9
$LIMMIN
 10
0.0
 20
0.0
  9
$LIMMAX
 10
420.0
 20
297.0
  9
$ORTHOMODE
 70
     0
  9
$REGENMODE
 70
     1
  9
$FILLMODE
 70
     1
  9
$QTEXTMODE
 70
     0
  9
$MIRRTEXT
 70
     1
  9
$LTSCALE
 40
1.0
  9
$ATTMODE
 70
     1
  9
$TEXTSIZE
 40
3.5
  9
$TRACEWID
 40
1.0
  9
$TEXTSTYLE
  7
Standard
  9
$CLAYER
  8
0
  9
$CELTYPE
  6
ByLayer
  9
$CECOLOR
 62
   256
  9
$CELTSCALE
 40
1.0
  9
$DISPSILH
 70
     0
  9
$DIMSCALE
 40
1.0
  9
$DIMASZ
 40
3.302
  9
$DIMEXO
 40
0.0
  9
$DIMDLI
 40
3.75
  9
$DIMRND
 40
0.0
  9
$DIMDLE
 40
0.0
  9
$DIMEXE
 40
1.0
  9
$DIMTP
 40
0.0
  9
$DIMTM
 40
0.0
  9
$DIMTXT
 40
3.5
  9
$DIMCEN
 40
2.5
  9
$DIMTSZ
 40
0.0
  9
$DIMTOL
 70
     0
  9
$DIMLIM
 70
     0
  9
$DIMTIH
 70
     1
  9
$DIMTOH
 70
     1
  9
$DIMSE1
 70
     0
  9
$DIMSE2
 70
     0
  9
$DIMTAD
 70
     1
  9
$DIMZIN
 70
     1
  9
$DIMBLK
  1

  9
$DIMASO
 70
     1
  9
$DIMSHO
 70
     1
  9
$DIMPOST
  1

  9
$DIMAPOST
  1

  9
$DIMALT
 70
     0
  9
$DIMALTD
 70
     3
  9
$DIMALTF
 40
0.0393700787
  9
$DIMLFAC
 40
1.0
  9
$DIMTOFL
 70
     1
  9
$DIMTVP
 40
0.0
  9
$DIMTIX
 70
     0
  9
$DIMSOXD
 70
     0
  9
$DIMSAH
 70
     0
  9
$DIMBLK1
  1

  9
$DIMBLK2
  1

  9
$DIMSTYLE
  2
ISO-25
  9
$DIMCLRD
 70
     0
  9
$DIMCLRE
 70
     0
  9
$DIMCLRT
 70
     0
  9
$DIMTFAC
 40
1.0
  9
$DIMGAP
 40
1.524
  9
$DIMJUST
 70
     0
  9
$DIMSD1
 70
     0
  9
$DIMSD2
 70
     0
  9
$DIMTOLJ
 70
     0
  9
$DIMTZIN
 70
     1
  9
$DIMALTZ
 70
     0
  9
$DIMALTTZ
 70
     0
  9
$DIMUPT
 70
     0
  9
$DIMDEC
 70
     2
  9
$DIMTDEC
 70
     2
  9
$DIMALTU
 70
     2
  9
$DIMALTTD
 70
     3
  9
$DIMTXSTY
  7
Standard
  9
$DIMAUNIT
 70
     0
  9
$DIMADEC
 70
     2
  9
$DIMALTRND
 40
0.0
  9
$DIMAZIN
 70
     0
  9
$DIMDSEP
 70
    44
  9
$DIMATFIT
 70
     3
  9
$DIMFRAC
 70
     0
  9
$DIMLDRBLK
  1

  9
$DIMLUNIT
 70
     2
  9
$DIMLWD
 70
    -2
  9
$DIMLWE
 70
    -2
  9
$DIMTMOVE
 70
     0
  9
$LUNITS
 70
     2
  9
$LUPREC
 70
     2
  9
$SKETCHINC
 40
1.0
  9
$FILLETRAD
 40
0.0
  9
$AUNITS
 70
     0
  9
$AUPREC
 70
     2
  9
$MENU
  1
.
  9
$ELEVATION
 40
0.0
  9
$PELEVATION
 40
0.0
  9
$THICKNESS
 40
0.0
  9
$LIMCHECK
 70
     0
  9
$CHAMFERA
 40
0.0
  9
$CHAMFERB
 40
0.0
  9
$CHAMFERC
 40
0.0
  9
$CHAMFERD
 40
0.0
  9
$SKPOLY
 70
     0
  9
$TDCREATE
 40
2460467.586593183
  9
$TDUCREATE
 40
2460467.711593183
  9
$TDUPDATE
 40
2460467.586633113
  9
$TDUUPDATE
 40
2460467.711633113
  9
$TDINDWG
 40
0.0000000116
  9
$TDUSRTIMER
 40
0.0000000116
  9
$USRTIMER
 70
     1
  9
$ANGBASE
 50
0.0
  9
$ANGDIR
 70
     0
  9
$PDMODE
 70
     0
  9
$PDSIZE
 40
-1.0
  9
$PLINEWID
 40
0.0
  9
$SPLFRAME
 70
     0
  9
$SPLINETYPE
 70
     6
  9
$SPLINESEGS
 70
     8
  9
$HANDSEED
  5
8F
  9
$SURFTAB1
 70
     6
  9
$SURFTAB2
 70
     6
  9
$SURFTYPE
 70
     6
  9
$SURFU
 70
     6
  9
$SURFV
 70
     6
  9
$UCSBASE
  2

  9
$UCSNAME
  2

  9
$UCSORG
 10
0.0
 20
0.0
 30
0.0
  9
$UCSXDIR
 10
1.0
 20
0.0
 30
0.0
  9
$UCSYDIR
 10
0.0
 20
1.0
 30
0.0
  9
$UCSORTHOREF
  2

  9
$UCSORTHOVIEW
 70
     0
  9
$UCSORGTOP
 10
0.0
 20
0.0
 30
0.0
  9
$UCSORGBOTTOM
 10
0.0
 20
0.0
 30
0.0
  9
$UCSORGLEFT
 10
0.0
 20
0.0
 30
0.0
  9
$UCSORGRIGHT
 10
0.0
 20
0.0
 30
0.0
  9
$UCSORGFRONT
 10
0.0
 20
0.0
 30
0.0
  9
$UCSORGBACK
 10
0.0
 20
0.0
 30
0.0
  9
$PUCSBASE
  2

  9
$PUCSNAME
  2

  9
$PUCSORG
 10
0.0
 20
0.0
 30
0.0
  9
$PUCSXDIR
 10
1.0
 20
0.0
 30
0.0
  9
$PUCSYDIR
 10
0.0
 20
1.0
 30
0.0
  9
$PUCSORTHOREF
  2

  9
$PUCSORTHOVIEW
 70
     0
  9
$PUCSORGTOP
 10
0.0
 20
0.0
 30
0.0
  9
$PUCSORGBOTTOM
 10
0.0
 20
0.0
 30
0.0
  9
$PUCSORGLEFT
 10
0.0
 20
0.0
 30
0.0
  9
$PUCSORGRIGHT
 10
0.0
 20
0.0
 30
0.0
  9
$PUCSORGFRONT
 10
0.0
 20
0.0
 30
0.0
  9
$PUCSORGBACK
 10
0.0
 20
0.0
 30
0.0
  9
$USERI1
 70
     0
  9
$USERI2
 70
     0
  9
$USERI3
 70
     0
  9
$USERI4
 70
     0
  9
$USERI5
 70
     0
  9
$USERR1
 40
0.0
  9
$USERR2
 40
0.0
  9
$USERR3
 40
0.0
  9
$USERR4
 40
0.0
  9
$USERR5
 40
0.0
  9
$WORLDVIEW
 70
     1
  9
$SHADEDGE
 70
     3
  9
$SHADEDIF
 70
    70
  9
$TILEMODE
 70
     1
  9
$MAXACTVP
 70
    64
  9
$PINSBASE
 10
0.0
 20
0.0
 30
0.0
  9
$PLIMCHECK
 70
     0
  9
$PEXTMIN
 10
1.0000000000E+20
 20
1.0000000000E+20
 30
1.0000000000E+20
  9
$PEXTMAX
 10
-1.0000000000E+20
 20
-1.0000000000E+20
 30
-1.0000000000E+20
  9
$PLIMMIN
 10
0.0
 20
0.0
  9
$PLIMMAX
 10
420.0
 20
297.0
  9
$UNITMODE
 70
     0
  9
$VISRETAIN
 70
     1
  9
$PLINEGEN
 70
     0
  9
$PSLTSCALE
 70
     1
  9
$TREEDEPTH
 70
  3020
  9
$CMLSTYLE
  2
Standard
  9
$CMLJUST
 70
     0
  9
$CMLSCALE
 40
20.0
  9
$PROXYGRAPHICS
 70
     1
  9
$MEASUREMENT
 70
     1
  9
$CELWEIGHT
370
    -1
  9
$ENDCAPS
280
     0
  9
$JOINSTYLE
280
     0
  9
$LWDISPLAY
290
     1
  9
$INSUNITS
 70
     4
  9
$HYPERLINKBASE
  1

  9
$STYLESHEET
  1

  9
$XEDIT
290
     1
  9
$CEPSNTYPE
380
     0
  9
$PSTYLEMODE
290
     1
  9
$FINGERPRINTGUID
  2
{a6d404ec-83d9-40e1-a018-d3aff72d5ed0}
  9
$VERSIONGUID
  2
{FAEB1C32-E019-11D5-929B-00C0DF256EC4}
  9
$EXTNAMES
290
     1
  9
$PSVPSCALE
 40
0.0
  9
$OLESTARTUP
290
     0
  0
ENDSEC
  0
SECTION
  2
CLASSES
  0
CLASS
  1
ACDBDICTIONARYWDFLT
  2
AcDbDictionaryWithDefault
  3
ObjectDBX Classes
 90
        0
280
     0
281
     0
  0
CLASS
  1
VISUALSTYLE
  2
AcDbVisualStyle
  3
ObjectDBX Classes
 90
     4095
280
     0
281
     0
  0
CLASS
  1
MATERIAL
  2
AcDbMaterial
  3
ObjectDBX Classes
 90
     1153
280
     0
281
     0
  0
CLASS
  1
SCALE
  2
AcDbScale
  3
ObjectDBX Classes
 90
     1153
280
     0
281
     0
  0
CLASS
  1
TABLESTYLE
  2
AcDbTableStyle
  3
ObjectDBX Classes
 90
     4095
280
     0
281
     0
  0
CLASS
  1
MLEADERSTYLE
  2
AcDbMLeaderStyle
  3
ACDB_MLEADERSTYLE_CLASS
 90
     4095
280
     0
281
     0
  0
CLASS
  1
SUN
  2
AcDbSun
  3
SCENEOE
 90
     1153
280
     0
281
     0
  0
CLASS
  1
ACDBPLACEHOLDER
  2
AcDbPlaceHolder
  3
ObjectDBX Classes
 90
        0
280
     0
281
     0
  0
CLASS
  1
LAYOUT
  2
AcDbLayout
  3
ObjectDBX Classes
 90
        0
280
     0
281
     0
  0
ENDSEC
  0
SECTION
  2
TABLES
  0
TABLE
  2
VPORT
  5
8
330
0
100
AcDbSymbolTable
 70
     1
  0
VPORT
  5
29
330
8
100
AcDbSymbolTableRecord
100
AcDbViewportTableRecord
  2
*Active
 70
     0
 10
0.0
 20
0.0
 11
1.0
 21
1.0
 12
0.0
 22
0.0
 13
0.0
 23
0.0
 14
10.0
 24
10.0
 15
10.0
 25
10.0
 16
0.0
 26
0.0
 36
1.0
 17
0.0
 27
0.0
 37
0.0
 40
61.2
 41
6.1436666667
 42
50.0
 43
0.0
 44
0.0
 50
0.0
 51
0.0
 71
     0
 72
   100
 73
     1
 74
     3
 75
     0
 76
     0
 77
     0
 78
     0
281
     0
 65
     1
110
0.0
120
0.0
130
0.0
111
1.0
121
0.0
131
0.0
112
0.0
122
1.0
132
0.0
 79
     0
146
0.0
  0
ENDTAB
  0
TABLE
  2
LTYPE
  5
5
330
0
100
AcDbSymbolTable
 70
     6
  0
LTYPE
  5
14
330
5
100
AcDbSymbolTableRecord
100
AcDbLinetypeTableRecord
  2
ByBlock
 70
     0
  3

 72
    65
 73
     0
 40
0.0
  0
LTYPE
  5
15
330
5
100
AcDbSymbolTableRecord
100
AcDbLinetypeTableRecord
  2
ByLayer
 70
     0
  3

 72
    65
 73
     0
 40
0.0
  0
LTYPE
  5
16
330
5
100
AcDbSymbolTableRecord
100
AcDbLinetypeTableRecord
  2
Continuous
 70
     0
  3
Solid line
 72
    65
 73
     0
 40
0.0
  0
LTYPE
  5
5E
330
5
100
AcDbSymbolTableRecord
100
AcDbLinetypeTableRecord
  2
HIDDEN
 70
     0
  3
Hidden __ __ __ __ __ __ __ __ __ __ __ __ __ __
 72
    65
 73
     2
 40
1.905
 49
1.27
 74
     0
 49
-0.635
 74
     0
  0
LTYPE
  5
5F
330
5
100
AcDbSymbolTableRecord
100
AcDbLinetypeTableRecord
  2
PHANTOM
 70
     0
  3
Phantom ______  __  __  ______  __  __  ______
 72
    65
 73
     6
 40
12.7
 49
6.35
 74
     0
 49
-1.27
 74
     0
 49
1.27
 74
     0
 49
-1.27
 74
     0
 49
1.27
 74
     0
 49
-1.27
 74
     0
  0
LTYPE
  5
60
330
5
100
AcDbSymbolTableRecord
100
AcDbLinetypeTableRecord
  2
CENTER
 70
     0
  3
Center ____ _ ____ _ ____ _ ____ _ ____ _ ____
 72
    65
 73
     4
 40
10.16
 49
6.35
 74
     0
 49
-1.27
 74
     0
 49
1.27
 74
     0
 49
-1.27
 74
     0
  0
LTYPE
  5
61
330
5
100
AcDbSymbolTableRecord
100
AcDbLinetypeTableRecord
  2
CENTERX2
 70
     0
  3
Center (2x) ________  __  ________  __  _____
 72
    65
 73
     4
 40
20.32
 49
12.7
 74
     0
 49
-2.54
 74
     0
 49
2.54
 74
     0
 49
-2.54
 74
     0
  0
LTYPE
  5
62
330
5
100
AcDbSymbolTableRecord
100
AcDbLinetypeTableRecord
  2
DOT2
 70
     0
  3
Dot (.5x) ........................................
 72
    65
 73
     2
 40
0.635
 49
0.0
 74
     0
 49
-0.635
 74
     0
  0
ENDTAB
  0
TABLE
  2
LAYER
  5
2
330
0
100
AcDbSymbolTable
 70
     1
  0
LAYER
  5
10
330
2
100
AcDbSymbolTableRecord
100
AcDbLayerTableRecord
  2
0
 70
     0
 62
     7
  6
Continuous
370
    -3
390
F
  0
ENDTAB
  0
TABLE
  2
STYLE
  5
3
330
0
100
AcDbSymbolTable
 70
     2
  0
STYLE
  5
11
330
3
100
AcDbSymbolTableRecord
100
AcDbTextStyleTableRecord
  2
Standard
 70
     0
 40
0.0
 41
1.0
 50
0.0
 71
     0
 42
3.5
  3
txt
  4

  0
STYLE
  5
8B
330
3
100
AcDbSymbolTableRecord
100
AcDbTextStyleTableRecord
  2
SLDTEXTSTYLE0
 70
     0
 40
0.0
 41
0.7
 50
0.0
 71
     0
 42
3.5
  3
TXT
  4

  0
ENDTAB
  0
TABLE
  2
VIEW
  5
6
330
0
100
AcDbSymbolTable
 70
     0
  0
ENDTAB
  0
TABLE
  2
UCS
  5
7
330
0
100
AcDbSymbolTable
 70
     0
  0
ENDTAB
  0
TABLE
  2
APPID
  5
9
330
0
100
AcDbSymbolTable
 70
     1
  0
APPID
  5
12
330
9
100
AcDbSymbolTableRecord
100
AcDbRegAppTableRecord
  2
ACAD
 70
     0
  0
ENDTAB
  0
TABLE
  2
DIMSTYLE
  5
A
330
0
100
AcDbSymbolTable
 70
     1
100
AcDbDimStyleTable
  0
DIMSTYLE
105
27
330
A
100
AcDbSymbolTableRecord
100
AcDbDimStyleTableRecord
  2
ISO-25
 70
     0
 41
2.5
 42
0.625
 43
3.75
 44
1.25
 73
     0
 74
     0
 77
     1
 78
     8
140
2.5
141
2.5
143
0.0393700787
147
0.625
171
     3
172
     1
178
     0
271
     2
272
     2
274
     3
278
    44
283
     0
284
     8
340
11
  0
ENDTAB
  0
TABLE
  2
BLOCK_RECORD
  5
1
330
0
100
AcDbSymbolTable
 70
     1
  0
BLOCK_RECORD
  5
1F
330
1
100
AcDbSymbolTableRecord
100
AcDbBlockTableRecord
  2
*Model_Space
340
22
  0
BLOCK_RECORD
  5
1B
330
1
100
AcDbSymbolTableRecord
100
AcDbBlockTableRecord
  2
*Paper_Space
340
1E
  0
BLOCK_RECORD
  5
23
330
1
100
AcDbSymbolTableRecord
100
AcDbBlockTableRecord
  2
*Paper_Space0
340
26
  0
ENDTAB
  0
ENDSEC
  0
SECTION
  2
BLOCKS
  0
BLOCK
  5
20
330
1F
100
AcDbEntity
  8
0
100
AcDbBlockBegin
  2
*Model_Space
 70
     0
 10
0.0
 20
0.0
 30
0.0
  3
*Model_Space
  1

  0
ENDBLK
  5
21
330
1F
100
AcDbEntity
  8
0
100
AcDbBlockEnd
  0
BLOCK
  5
1C
330
1B
100
AcDbEntity
 67
     1
  8
0
100
AcDbBlockBegin
  2
*Paper_Space
 70
     0
 10
0.0
 20
0.0
 30
0.0
  3
*Paper_Space
  1

  0
ENDBLK
  5
1D
330
1B
100
AcDbEntity
 67
     1
  8
0
100
AcDbBlockEnd
  0
BLOCK
  5
24
330
23
100
AcDbEntity
  8
0
100
AcDbBlockBegin
  2
*Paper_Space0
 70
     0
 10
0.0
 20
0.0
 30
0.0
  3
*Paper_Space0
  1

  0
ENDBLK
  5
25
330
23
100
AcDbEntity
  8
0
100
AcDbBlockEnd
  0
ENDSEC
  0
SECTION
  2
ENTITIES
  0
LINE
  5
63
330
1F
100
AcDbEntity
  8
0
  6
CENTERX2
 62
     7
100
AcDbLine
 10
-125.0
 20
-26.0
 30
0.0
 11
125.0
 21
-26.0
 31
0.0
  0
LWPOLYLINE
  5
64
330
1F
100
AcDbEntity
  8
0
  6
Continuous
 62
     7
100
AcDbPolyline
 90
       60
 70
   128
 43
0.0
 10
-110.1048588753
 20
13.7856553998
 10
-110.104918075
 20
9.6385897568
 10
-110.104918075
 20
9.6385897568
 10
-111.1600886232
 20
9.3195847073
 10
-112.108924155
 20
8.9187834913
 10
-112.9514246702
 20
8.4525453421
 10
-113.687590169
 20
7.9045110264
 10
-114.2847021847
 20
7.3073990107
 10
-114.7100422506
 20
6.6775685284
 10
-114.9717899835
 20
6.0150195796
 10
-115.05358615
 20
5.3197521641
 10
-115.05358615
 20
5.3197521641
 10
-115.05358615
 20
-16.667057399
 10
-115.05358615
 20
-16.667057399
 10
-114.9717899835
 20
-17.3868636645
 10
-114.7100422506
 20
-18.05759223
 10
-114.2847021847
 20
-18.6956023289
 10
-113.687590169
 20
-19.2845347279
 10
-112.9514246702
 20
-19.8162098104
 10
-112.108924155
 20
-20.274268343
 10
-111.1600886232
 20
-20.6668899423
 10
-110.104918075
 20
-20.9858949918
 10
-110.104918075
 20
-20.9858949918
 10
-110.104918075
 20
-25.4765045342
 10
-110.104918075
 20
-25.4765045342
 10
-111.3482198063
 20
-25.2801937345
 10
-112.5588030709
 20
-25.0184460016
 10
-113.7448474856
 20
-24.7076205688
 10
-114.889993817
 20
-24.3395378195
 10
-115.9860624485
 20
-23.9223773702
 10
-117.0003349134
 20
-23.4561392209
 10
-117.9491704452
 20
-22.9571826051
 10
-118.824389427
 20
-22.4091482894
 10
-119.6178122424
 20
-21.828395507
 10
-120.3130796579
 20
-21.2067446414
 10
-120.9265509068
 20
-20.5605549258
 10
-121.441866756
 20
-19.8816467436
 10
-121.8508475886
 20
-19.1781997115
 10
-122.1453137881
 20
-18.4502138293
 10
-122.3252653545
 20
-17.7140483306
 10
-122.3825226711
 20
-16.9533439819
 10
-122.3825226711
 20
-16.9533439819
 10
-122.3825226711
 20
5.2624948475
 10
-122.3825226711
 20
5.2624948475
 10
-122.3252653545
 20
6.0231991962
 10
-122.1453137881
 20
6.7675443116
 10
-121.8508475886
 20
7.4873505771
 10
-121.441866756
 20
8.1907976092
 10
-120.9265509068
 20
8.8697057914
 10
-120.3130796579
 20
9.515895507
 10
-119.6178122424
 20
10.1375463726
 10
-118.824389427
 20
10.718299155
 10
-117.9491704452
 20
11.2663334707
 10
-117.0003349134
 20
11.7734697032
 10
-115.9860624485
 20
12.2315282358
 10
-114.889993817
 20
12.6486886851
 10
-113.7448474856
 20
13.0167714345
 10
-112.5588030709
 20
13.3275968673
 10
-111.3482198063
 20
13.5893446002
 10
-110.104918075
 20
13.7856553998
  0
LWPOLYLINE
  5
65
330
1F
100
AcDbEntity
  8
0
  6
Continuous
 62
     7
100
AcDbPolyline
 90
       48
 70
   128
 43
0.0
 10
-103.2503843307
 20
-21.0104338417
 10
-102.1952287716
 20
-20.6914287923
 10
-101.2382136232
 20
-20.2906275763
 10
-100.4038927246
 20
-19.824389427
 10
-99.6677272259
 20
-19.2845347279
 10
-99.0706152102
 20
-18.6874227123
 10
-98.6452751443
 20
-18.05759223
 10
-98.3835274114
 20
-17.4032228978
 10
-98.3017312448
 20
-16.7079554823
 10
-98.3017312448
 20
-16.7079554823
 10
-98.2117554617
 20
-16.2580765664
 10
-97.9336484955
 20
-15.9227122836
 10
-97.5246676628
 20
-15.6691441674
 10
-97.0420702803
 20
-15.4973722176
 10
-96.5185748145
 20
-15.3746779678
 10
-95.9950793487
 20
-15.301061418
 10
-95.5206615829
 20
-15.2601633347
 10
-95.1607584501
 20
-15.2438041014
 10
-95.1607584501
 20
-15.2438041014
 10
-93.9010974856
 20
-15.2438041014
 10
-93.9010974856
 20
-15.2438041014
 10
-93.5330147362
 20
-15.2601633347
 10
-93.066776587
 20
-15.301061418
 10
-92.5596403545
 20
-15.3828575845
 10
-92.077042972
 20
-15.5219110676
 10
-91.6435232894
 20
-15.7345811006
 10
-91.2917997733
 20
-16.0372269167
 10
-91.0545908904
 20
-16.4462077494
 10
-90.9727947238
 20
-16.9942420651
 10
-90.9727947238
 20
-16.9942420651
 10
-91.0300520404
 20
-17.7467667972
 10
-91.2100036068
 20
-18.4911119126
 10
-91.5044698063
 20
-19.2190977947
 10
-91.9134506389
 20
-19.9307244435
 10
-92.428766488
 20
-20.6178122424
 10
-93.0340581204
 20
-21.264001958
 10
-93.7375051525
 20
-21.8774732069
 10
-94.5309279678
 20
-22.4500463726
 10
-95.4061469497
 20
-22.9817214551
 10
-96.3386232481
 20
-23.4724984542
 10
-97.3447160965
 20
-23.9305569868
 10
-98.416245878
 20
-24.3477174361
 10
-99.5450329761
 20
-24.7158001855
 10
-100.7310773908
 20
-25.0184460016
 10
-101.9661995054
 20
-25.2801937345
 10
-103.2503993199
 20
-25.4765045342
 10
-103.2503993199
 20
-25.4765045342
 10
-103.2503993199
 20
-21.0104338417
  0
LWPOLYLINE
  5
66
330
1F
100
AcDbEntity
  8
0
  6
Continuous
 62
     7
100
AcDbPolyline
 90
       48
 70
   128
 43
0.0
 10
-103.2503843307
 20
13.4666503504
 10
-101.9661995054
 20
13.2703395507
 10
-100.7310773908
 20
13.0085918178
 10
-99.5450329761
 20
12.697766385
 10
-98.416245878
 20
12.3296836356
 10
-97.3447160965
 20
11.9125231863
 10
-96.3386232481
 20
11.4544646538
 10
-95.4061469497
 20
10.9555080379
 10
-94.5309279678
 20
10.4074737222
 10
-93.7375051525
 20
9.8267209398
 10
-93.0340581204
 20
9.2132496908
 10
-92.428766488
 20
8.5670599753
 10
-91.9134506389
 20
7.8881517931
 10
-91.5044698063
 20
7.1847047609
 10
-91.2100036068
 20
6.4730781121
 10
-91.0300520404
 20
5.7369126134
 10
-90.9727947238
 20
4.9843878813
 10
-90.9727947238
 20
4.9843878813
 10
-91.0218724237
 20
4.4199943322
 10
-91.1854647568
 20
3.978295033
 10
-91.4472124897
 20
3.6429307502
 10
-91.8152952391
 20
3.4302607172
 10
-92.6496161377
 20
3.2012314509
 10
-93.4839370363
 20
3.1194352844
 10
-93.4839370363
 20
3.1194352844
 10
-94.0074325021
 20
3.1194352844
 10
-94.0074325021
 20
3.1194352844
 10
-94.9480884171
 20
3.1194352844
 10
-94.9480884171
 20
3.1194352844
 10
-95.5779188994
 20
3.1194352844
 10
-95.5779188994
 20
3.1194352844
 10
-96.4449582646
 20
3.2012314509
 10
-97.3610753298
 20
3.4302607172
 10
-97.7700561624
 20
3.6511103669
 10
-98.0645223619
 20
3.9864746496
 10
-98.2444739283
 20
4.4527127988
 10
-98.3017312448
 20
5.0416451979
 10
-98.3017312448
 20
5.0416451979
 10
-98.3835274114
 20
5.7532718467
 10
-98.6452751443
 20
6.4240004122
 10
-99.0706152102
 20
7.0456512778
 10
-99.6677272259
 20
7.6345836768
 10
-100.4038927246
 20
8.1662587593
 10
-101.2382136232
 20
8.6324969085
 10
-102.1952287716
 20
9.0169388912
 10
-103.2503993199
 20
9.3359439406
 10
-103.2503993199
 20
9.3359439406
 10
-103.2503993199
 20
13.4666503504
  0
LWPOLYLINE
  5
67
330
1F
100
AcDbEntity
  8
0
  6
Continuous
 62
     7
100
AcDbPolyline
 90
       52
 70
   128
 43
0.0
 10
-67.6527023315
 20
-8.2011541632
 10
-67.6527076463
 20
-4.0131904369
 10
-67.6527076463
 20
-4.0131904369
 10
-62.7040395713
 20
-4.0131904369
 10
-62.7040395713
 20
-4.0131904369
 10
-62.7040395713
 20
12.272426319
 10
-62.7040395713
 20
12.272426319
 10
-62.6549618714
 20
12.5750721352
 10
-62.5077287716
 20
12.8531791014
 10
-62.2623402721
 20
13.1067472176
 10
-61.9187963726
 20
13.3439561006
 10
-61.5016359233
 20
13.5402669002
 10
-61.0435773908
 20
13.6793203833
 10
-60.5364411583
 20
13.7692961665
 10
-59.9802272259
 20
13.7938350165
 10
-59.9802272259
 20
13.7938350165
 10
-58.0989153957
 20
13.7938350165
 10
-58.0989153957
 20
13.7938350165
 10
-57.5427014633
 20
13.7692961665
 10
-57.0355652308
 20
13.6793203833
 10
-56.5775066983
 20
13.5402669002
 10
-56.160346249
 20
13.3439561006
 10
-55.8168023495
 20
13.1067472176
 10
-55.57141385
 20
12.8531791014
 10
-55.4241807502
 20
12.5750721352
 10
-55.3751030503
 20
12.272426319
 10
-55.3751030503
 20
12.272426319
 10
-55.3751030503
 20
-24.4867709192
 10
-55.3751030503
 20
-24.4867709192
 10
-55.4241807502
 20
-24.7812371187
 10
-55.57141385
 20
-25.0593440849
 10
-55.8168023495
 20
-25.3047325845
 10
-56.160346249
 20
-25.5337618508
 10
-56.5775066983
 20
-25.7137134171
 10
-57.0355652308
 20
-25.8445872836
 10
-57.5427014633
 20
-25.9263834501
 10
-58.0989153957
 20
-25.9509223001
 10
-58.0989153957
 20
-25.9509223001
 10
-59.9802272259
 20
-25.9509223001
 10
-59.9802272259
 20
-25.9509223001
 10
-60.5364411583
 20
-25.9263834501
 10
-61.0435773908
 20
-25.8445872836
 10
-61.5016359233
 20
-25.7137134171
 10
-61.9187963726
 20
-25.5337618508
 10
-62.2623402721
 20
-25.3047325845
 10
-62.5077287716
 20
-25.0593440849
 10
-62.6549618714
 20
-24.7812371187
 10
-62.7040395713
 20
-24.4867709192
 10
-62.7040395713
 20
-24.4867709192
 10
-62.7040395713
 20
-8.2011541632
 10
-62.7040395713
 20
-8.2011541632
 10
-67.6527076463
 20
-8.2011541632
  0
LWPOLYLINE
  5
68
330
1F
100
AcDbEntity
  8
0
  6
Continuous
 62
     7
100
AcDbPolyline
 90
       52
 70
   128
 43
0.0
 10
-84.0609669685
 20
13.7938350165
 10
-82.1797068219
 20
13.7938350165
 10
-82.1797068219
 20
13.7938350165
 10
-81.6234928895
 20
13.7692961665
 10
-81.116356657
 20
13.6793203833
 10
-80.6582981245
 20
13.5402669002
 10
-80.2411376752
 20
13.3439561006
 10
-79.8975937758
 20
13.1067472176
 10
-79.6522052762
 20
12.8531791014
 10
-79.5049721764
 20
12.5750721352
 10
-79.4558944765
 20
12.272426319
 10
-79.4558944765
 20
12.272426319
 10
-79.4558944765
 20
-4.0131904369
 10
-79.4558944765
 20
-4.0131904369
 10
-74.5072264015
 20
-4.0131904369
 10
-74.5072264015
 20
-4.0131904369
 10
-74.5072264015
 20
-8.2011541632
 10
-74.5072264015
 20
-8.2011541632
 10
-79.4558944765
 20
-8.2011541632
 10
-79.4558944765
 20
-8.2011541632
 10
-79.4558944765
 20
-24.4867709192
 10
-79.4558944765
 20
-24.4867709192
 10
-79.5049721764
 20
-24.7812371187
 10
-79.6522052762
 20
-25.0593440849
 10
-79.8975937758
 20
-25.3047325845
 10
-80.2411376752
 20
-25.5337618508
 10
-80.6582981245
 20
-25.7137134171
 10
-81.116356657
 20
-25.8445872836
 10
-81.6234928895
 20
-25.9263834501
 10
-82.1797068219
 20
-25.9509223001
 10
-82.1797068219
 20
-25.9509223001
 10
-84.0610186521
 20
-25.9509223001
 10
-84.0610186521
 20
-25.9509223001
 10
-84.6172325845
 20
-25.9263834501
 10
-85.124368817
 20
-25.8445872836
 10
-85.5824273495
 20
-25.7137134171
 10
-85.9995877988
 20
-25.5337618508
 10
-86.3431316983
 20
-25.3047325845
 10
-86.5885201979
 20
-25.0593440849
 10
-86.7357532976
 20
-24.7812371187
 10
-86.7848309975
 20
-24.4867709192
 10
-86.7848309975
 20
-24.4867709192
 10
-86.7848309975
 20
12.272426319
 10
-86.7848309975
 20
12.272426319
 10
-86.7357532976
 20
12.5750721352
 10
-86.5885201979
 20
12.8531791014
 10
-86.3431316983
 20
13.1067472176
 10
-85.9995877988
 20
13.3439561006
 10
-85.5824273495
 20
13.5402669002
 10
-85.124368817
 20
13.6793203833
 10
-84.6172325845
 20
13.7692961665
 10
-84.0610186521
 20
13.7938350165
  0
LWPOLYLINE
  5
69
330
1F
100
AcDbEntity
  8
0
  6
Continuous
 62
     7
100
AcDbPolyline
 90
       52
 70
   128
 43
0.0
 10
-47.2527146339
 20
13.7856553998
 10
-42.8112118714
 20
13.7856553998
 10
-42.8112118714
 20
13.7856553998
 10
-42.8112118714
 20
-4.0131904369
 10
-42.8112118714
 20
-4.0131904369
 10
-21.4624124073
 20
-4.0131904369
 10
-21.4624124073
 20
-4.0131904369
 10
-20.9225577082
 20
-4.0459089035
 10
-20.4236010923
 20
-4.1277050701
 10
-19.9655425598
 20
-4.2831177865
 10
-19.5402024938
 20
-4.4876082028
 10
-19.1884789777
 20
-4.7329967024
 10
-18.9349108615
 20
-5.0029240519
 10
-18.7794981451
 20
-5.2892106348
 10
-18.7304204452
 20
-5.6082156843
 10
-18.7304204452
 20
-5.6082156843
 10
-18.7304204452
 20
-6.5488715993
 10
-18.7304204452
 20
-6.5488715993
 10
-18.7794981451
 20
-6.8596970322
 10
-18.9349108615
 20
-7.1623428483
 10
-19.1884789777
 20
-7.4404498145
 10
-19.5402024938
 20
-7.7021975474
 10
-19.9655425598
 20
-7.923047197
 10
-20.4236010923
 20
-8.0784599134
 10
-20.9225577082
 20
-8.1684356966
 10
-21.4624124073
 20
-8.2011541632
 10
-21.4624124073
 20
-8.2011541632
 10
-42.8112118714
 20
-8.2011541632
 10
-42.8112118714
 20
-8.2011541632
 10
-42.8112118714
 20
-26.0
 10
-42.8112118714
 20
-26.0
 10
-47.2527437139
 20
-26.0
 10
-47.2527437139
 20
-26.0
 10
-47.8007780297
 20
-25.97546115
 10
-48.3160938788
 20
-25.8854853669
 10
-48.806870878
 20
-25.7464318838
 10
-49.2649294106
 20
-25.5501210841
 10
-49.6493713932
 20
-25.3129122012
 10
-49.9192987428
 20
-25.0511644683
 10
-50.0828910758
 20
-24.7648778854
 10
-50.1401483924
 20
-24.4622320692
 10
-50.1401483924
 20
-24.4622320692
 10
-50.1401483924
 20
12.2478874691
 10
-50.1401483924
 20
12.2478874691
 10
-50.0828910758
 20
12.5505332852
 10
-49.9192987428
 20
12.8368198681
 10
-49.6493713932
 20
13.0903879843
 10
-49.2649294106
 20
13.3275968673
 10
-48.806870878
 20
13.5320872836
 10
-48.3160938788
 20
13.6711407667
 10
-47.8007780297
 20
13.7611165499
 10
-47.2527437139
 20
13.7856553998
  0
LWPOLYLINE
  5
6A
330
1F
100
AcDbEntity
  8
0
  6
Continuous
 62
     7
100
AcDbPolyline
 90
       26
 70
   128
 43
0.0
 10
-21.4378684759
 20
13.7856553998
 10
-20.9061984749
 20
13.7529369332
 10
-20.407241859
 20
13.66296115
 10
-19.9491833265
 20
13.5157280503
 10
-19.5320228772
 20
13.3030580173
 10
-19.1802993611
 20
13.0576695177
 10
-18.9267312448
 20
12.7877421682
 10
-18.7794981451
 20
12.4932759687
 10
-18.7304204452
 20
12.1742709192
 10
-18.7304204452
 20
12.1742709192
 10
-18.7304204452
 20
11.2090761542
 10
-18.7304204452
 20
11.2090761542
 10
-18.7794981451
 20
10.8900711047
 10
-18.9267312448
 20
10.5956049052
 10
-19.1802993611
 20
10.3256775556
 10
-19.5320228772
 20
10.0721094394
 10
-19.9491833265
 20
9.8676190231
 10
-20.407241859
 20
9.7203859233
 10
-20.9061984749
 20
9.6304101401
 10
-21.4378735573
 20
9.5976916735
 10
-21.4378735573
 20
9.5976916735
 10
-35.4822753504
 20
9.5976916735
 10
-35.4822753504
 20
9.5976916735
 10
-35.4822753504
 20
13.7856553998
 10
-35.4822753504
 20
13.7856553998
 10
-21.4378735573
 20
13.7856553998
  0
LWPOLYLINE
  5
6B
330
1F
100
AcDbEntity
  8
0
  6
Continuous
 62
     7
100
AcDbPolyline
 90
       26
 70
   128
 43
0.0
 10
-21.4378684759
 20
-21.8120362737
 10
-20.9061984749
 20
-21.8447547403
 10
-20.407241859
 20
-21.9347305235
 10
-19.9491833265
 20
-22.0819636232
 10
-19.5320228772
 20
-22.2946336562
 10
-19.1802993611
 20
-22.5400221558
 10
-18.9267312448
 20
-22.8099495054
 10
-18.7794981451
 20
-23.1044157049
 10
-18.7304204452
 20
-23.4234207543
 10
-18.7304204452
 20
-23.4234207543
 10
-18.7304204452
 20
-24.3886155194
 10
-18.7304204452
 20
-24.3886155194
 10
-18.7794981451
 20
-24.7076205688
 10
-18.9267312448
 20
-25.0020867683
 10
-19.1802993611
 20
-25.2720141179
 10
-19.5320228772
 20
-25.5255822341
 10
-19.9491833265
 20
-25.7300726505
 10
-20.407241859
 20
-25.8773057502
 10
-20.9061984749
 20
-25.9672815334
 10
-21.4378735573
 20
-26.0
 10
-21.4378735573
 20
-26.0
 10
-35.4822753504
 20
-26.0
 10
-35.4822753504
 20
-26.0
 10
-35.4822753504
 20
-21.8692935903
 10
-35.4822753504
 20
-21.8692935903
 10
-21.4378735573
 20
-21.8120362737
  0
LWPOLYLINE
  5
6C
330
1F
100
AcDbEntity
  8
0
  6
Continuous
 62
     7
100
AcDbPolyline
 90
       60
 70
   128
 43
0.0
 10
-13.4954601526
 20
-17.4032228978
 10
-13.4954657873
 20
4.6981012984
 10
-13.4954657873
 20
4.6981012984
 10
-13.4382084707
 20
5.4588056472
 10
-13.2582569044
 20
6.1949711459
 10
-12.9637907049
 20
6.922957028
 10
-12.5548098722
 20
7.6345836768
 10
-12.0394940231
 20
8.3216714757
 10
-11.4260227741
 20
8.9760408079
 10
-10.7307553586
 20
9.5813324402
 10
-9.9373325433
 20
10.1539056059
 10
-9.0621135614
 20
10.6855806884
 10
-8.1132780297
 20
11.1845373042
 10
-7.0990055647
 20
11.6344162201
 10
-6.0029369332
 20
12.0515766694
 10
-4.8496109852
 20
12.4196594188
 10
-3.6717461871
 20
12.7304848516
 10
-2.4529833059
 20
12.9840529678
 10
-1.2096815746
 20
13.1803637675
 10
-1.2096815746
 20
13.1803637675
 10
-1.2096815746
 20
9.0496573578
 10
-1.2096815746
 20
9.0496573578
 10
-2.2648521228
 20
8.7306523083
 10
-3.2218672712
 20
8.3462103256
 10
-4.0643677865
 20
7.8881517931
 10
-4.8005332852
 20
7.3564767106
 10
-5.3976453009
 20
6.7675443116
 10
-5.8229853669
 20
6.145893446
 10
-6.0847330998
 20
5.4669852638
 10
-6.1665292663
 20
4.755358615
 10
-6.1665292663
 20
4.755358615
 10
-6.1665292663
 20
-17.1251159316
 10
-6.1665292663
 20
-17.1251159316
 10
-6.0847330998
 20
-17.8122037304
 10
-5.8229853669
 20
-18.4665730627
 10
-5.3976453009
 20
-19.0882239283
 10
-4.8005332852
 20
-19.6689767106
 10
-4.0643677865
 20
-20.2006517931
 10
-3.2218672712
 20
-20.6668899423
 10
-2.2648521228
 20
-21.0758707749
 10
-1.2096815746
 20
-21.4194146744
 10
-1.2096815746
 20
-21.4194146744
 10
-1.2096815746
 20
-25.8854853669
 10
-1.2096815746
 20
-25.8854853669
 10
-2.4529833059
 20
-25.6891745672
 10
-3.6717461871
 20
-25.4356064509
 10
-4.8496109852
 20
-25.1247810181
 10
-6.0029369332
 20
-24.7566982688
 10
-7.0990055647
 20
-24.3395378195
 10
-8.1132780297
 20
-23.8814792869
 10
-9.0621135614
 20
-23.3743430544
 10
-9.9373325433
 20
-22.8344883553
 10
-10.7307553586
 20
-22.253735573
 10
-11.4260227741
 20
-21.640264324
 10
-12.0394940231
 20
-21.0022542251
 10
-12.5548098722
 20
-20.3233460429
 10
-12.9637907049
 20
-19.6198990107
 10
-13.2582569044
 20
-18.9000927453
 10
-13.4382084707
 20
-18.1557476298
 10
-13.4954657873
 20
-17.4032228978
  0
LWPOLYLINE
  5
6D
330
1F
100
AcDbEntity
  8
0
  6
Continuous
 62
     7
100
AcDbPolyline
 90
       66
 70
   128
 43
0.0
 10
5.2276737988
 20
-8.724649629
 10
15.084114798
 20
-8.724649629
 10
15.084114798
 20
-8.724649629
 10
15.3131440643
 20
-8.724649629
 10
15.5585325639
 20
-8.724649629
 10
15.8121006801
 20
-8.724649629
 10
16.0329503298
 20
-8.724649629
 10
16.0329503298
 20
-8.724649629
 10
16.7200381286
 20
-8.7819069456
 10
17.3335093776
 20
-8.961858512
 10
17.5870774938
 20
-9.1090916117
 10
17.7670290602
 20
-9.3217616447
 10
17.8815436933
 20
-9.6080482275
 10
17.9142621599
 20
-9.9597717436
 10
17.9142621599
 20
-9.9597717436
 10
17.9142621599
 20
-17.5177375309
 10
17.9142621599
 20
-17.5177375309
 10
17.8570048434
 20
-18.2784418796
 10
17.677053277
 20
-19.0146073784
 10
17.3825870775
 20
-19.7507728772
 10
16.9736062448
 20
-20.462399526
 10
16.4582903957
 20
-21.1494873248
 10
15.8529987634
 20
-21.7956770404
 10
15.1495517312
 20
-22.4091482894
 10
14.3561289159
 20
-22.9817214551
 10
13.480909934
 20
-23.5133965375
 10
12.5484336356
 20
-24.0041735367
 10
11.5423407873
 20
-24.4540524526
 10
10.4708110058
 20
-24.8712129019
 10
9.3420239077
 20
-25.2392956513
 10
8.155979493
 20
-25.5501210841
 10
6.9208573784
 20
-25.8036892003
 10
5.6284779472
 20
-26.0
 10
5.6284779472
 20
-26.0
 10
5.6284779472
 20
-21.5339293075
 10
5.6284779472
 20
-21.5339293075
 10
6.6836484955
 20
-21.214924258
 10
7.6406636439
 20
-20.8223026587
 10
8.4831641591
 20
-20.3560645095
 10
9.2193296579
 20
-19.8162098104
 10
9.8164416735
 20
-19.2190977947
 10
10.2417817395
 20
-18.5892673124
 10
10.5035294724
 20
-17.9348979802
 10
10.5853256389
 20
-17.2396305647
 10
10.5853256389
 20
-17.2396305647
 10
10.5853256389
 20
-11.8656224237
 10
10.5853256389
 20
-11.8656224237
 10
5.3258321311
 20
-11.8656224237
 10
5.3258321311
 20
-11.8656224237
 10
4.5078704658
 20
-11.8329039571
 10
3.8616807502
 20
-11.7347485573
 10
3.6162922506
 20
-11.6365931575
 10
3.4445203009
 20
-11.4811804411
 10
3.3381852844
 20
-11.2603307914
 10
3.3054668178
 20
-10.9740442086
 10
3.3054668178
 20
-10.9740442086
 10
3.3054668178
 20
-9.8207182605
 10
3.3054668178
 20
-9.8207182605
 10
3.3300056678
 20
-9.4935335944
 10
3.4199814509
 20
-9.2317858615
 10
3.559034934
 20
-9.0354750618
 10
3.7553457337
 20
-8.912780812
 10
4.2297634996
 20
-8.7737273289
 10
4.7205404988
 20
-8.724649629
 10
4.7205404988
 20
-8.724649629
 10
5.2276767312
 20
-8.724649629
  0
LWPOLYLINE
  5
6E
330
1F
100
AcDbEntity
  8
0
  6
Continuous
 62
     7
100
AcDbPolyline
 90
       48
 70
   128
 43
0.0
 10
5.628477782
 20
13.1803637675
 10
6.9208573784
 20
12.9840529678
 10
8.155979493
 20
12.7304848516
 10
9.3420239077
 20
12.4196594188
 10
10.4708110058
 20
12.0515766694
 10
11.5423407873
 20
11.6344162201
 10
12.5484336356
 20
11.1763576876
 10
13.480909934
 20
10.6692214551
 10
14.3561289159
 20
10.129366756
 10
15.1495517312
 20
9.5486139736
 10
15.8529987634
 20
8.9351427246
 10
16.4582903957
 20
8.2889530091
 10
16.9736062448
 20
7.6100448269
 10
17.3825870775
 20
6.9065977947
 10
17.677053277
 20
6.1949711459
 10
17.8570048434
 20
5.4506260305
 10
17.9142621599
 20
4.6981012984
 10
17.9142621599
 20
4.6981012984
 10
17.8733640767
 20
4.2318631492
 10
17.7588494435
 20
3.8310619332
 10
17.5625386439
 20
3.5120568838
 10
17.2844316777
 20
3.2584887675
 10
16.899989695
 20
3.0703575845
 10
16.3683146125
 20
2.9394837181
 10
15.697586047
 20
2.8576875515
 10
14.8796243817
 20
2.8331487016
 10
14.8796243817
 20
2.8331487016
 10
13.7262984336
 20
2.8331487016
 10
13.7262984336
 20
2.8331487016
 10
12.9001571517
 20
2.8658671682
 10
12.2212489695
 20
2.9558429514
 10
11.6732146538
 20
3.1030760511
 10
11.2642338211
 20
3.3157460841
 10
10.9697676216
 20
3.5856734336
 10
10.7570975886
 20
3.9210377164
 10
10.6262237222
 20
4.3054796991
 10
10.5853256389
 20
4.755358615
 10
10.5853256389
 20
4.755358615
 10
10.5035294724
 20
5.4669852638
 10
10.2417817395
 20
6.145893446
 10
9.8164416735
 20
6.7675443116
 10
9.2193296579
 20
7.3564767106
 10
8.4831641591
 20
7.8881517931
 10
7.6406636439
 20
8.3462103256
 10
6.6836484955
 20
8.7306523083
 10
5.6284779472
 20
9.0496573578
 10
5.6284779472
 20
9.0496573578
 10
5.6284779472
 20
13.1803637675
  0
LWPOLYLINE
  5
6F
330
1F
100
AcDbEntity
  8
0
  6
Continuous
 62
     7
100
AcDbPolyline
 90
       64
 70
   128
 43
0.0
 10
22.9528993368
 20
-25.2147568013
 10
31.0425468879
 20
1.598026587
 10
31.0425468879
 20
1.598026587
 10
34.6742966818
 20
-10.0497475268
 10
34.6742966818
 20
-10.0497475268
 10
32.3512855523
 20
-17.6240725474
 10
32.3512855523
 20
-17.6240725474
 10
44.1708316158
 20
-17.6240725474
 10
44.1708316158
 20
-17.6240725474
 10
38.3142260923
 20
1.7697985367
 10
38.3142260923
 20
1.7697985367
 10
38.2160706925
 20
1.598026587
 10
38.2160706925
 20
1.598026587
 10
34.6742966818
 20
13.074028751
 10
34.6742966818
 20
13.074028751
 10
34.9687628813
 20
13.2703395507
 10
35.3613844806
 20
13.4093930338
 10
35.8276226298
 20
13.499368817
 10
36.3920161789
 20
13.5239076669
 10
36.3920161789
 20
13.5239076669
 10
40.2364360058
 20
13.5239076669
 10
40.2364360058
 20
13.5239076669
 10
40.9562422712
 20
13.4911892003
 10
41.4960969703
 20
13.3848541838
 10
41.7087670033
 20
13.286698784
 10
41.8887185697
 20
13.1231064509
 10
42.0359516694
 20
12.9022568013
 10
42.1504663026
 20
12.6241498351
 10
42.1504663026
 20
12.6241498351
 10
53.56921115
 20
-25.0429848516
 10
53.56921115
 20
-25.0429848516
 10
53.61828885
 20
-25.4601453009
 10
53.4710557502
 20
-25.7627911171
 10
53.1193322341
 20
-25.9427426834
 10
52.5631183017
 20
-26.0
 10
52.5631183017
 20
-26.0
 10
48.1134068425
 20
-26.0
 10
48.1134068425
 20
-26.0
 10
47.5571929101
 20
-25.9672815334
 10
47.0991343776
 20
-25.8691261336
 10
46.7474108615
 20
-25.6319172506
 10
46.4938427453
 20
-25.198397568
 10
46.4938427453
 20
-25.198397568
 10
45.3895944971
 20
-21.8120362737
 10
45.3895944971
 20
-21.8120362737
 10
31.1407022877
 20
-21.8120362737
 10
31.1407022877
 20
-21.8120362737
 10
30.0282744229
 20
-25.3047325845
 10
30.0282744229
 20
-25.3047325845
 10
29.8156043899
 20
-25.6564561006
 10
29.5702158904
 20
-25.8691261336
 10
29.2348516076
 20
-25.9672815334
 10
28.7195357585
 20
-26.0
 10
28.7195357585
 20
-26.0
 10
24.2698242993
 20
-26.0
 10
24.2698242993
 20
-26.0
 10
23.8935619332
 20
-25.9836407667
 10
23.5827365004
 20
-25.9509223001
 10
23.3291683842
 20
-25.8854853669
 10
23.1328575845
 20
-25.8036892003
 10
22.9938041014
 20
-25.6891745672
 10
22.9201875515
 20
-25.5583007007
 10
22.9038283182
 20
-25.3947083677
 10
22.9529060181
 20
-25.2147568013
  0
LWPOLYLINE
  5
70
330
1F
100
AcDbEntity
  8
0
  6
Continuous
 62
     7
100
AcDbPolyline
 90
       76
 70
   128
 43
0.0
 10
74.4435787201
 20
13.7856553998
 10
76.030438479
 20
13.7447573166
 10
77.5763860264
 20
13.6138834501
 10
79.0650762572
 20
13.4012134171
 10
80.5046887881
 20
13.098567601
 10
81.8788643858
 20
12.7304848516
 10
83.1794234336
 20
12.2887855523
 10
84.3818270816
 20
11.7898289365
 10
85.5106141797
 20
11.2254353875
 10
86.5330662613
 20
10.6037845218
 10
87.4491833265
 20
9.9330559563
 10
88.2344265251
 20
9.2050700742
 10
88.9133347073
 20
8.4361861088
 10
89.4613690231
 20
7.6264040602
 10
89.8458110058
 20
6.7839035449
 10
90.0830198887
 20
5.9168641797
 10
90.1566364386
 20
5.0171063479
 10
90.1566364386
 20
5.0171063479
 10
90.1566364386
 20
-17.2314509481
 10
90.1566364386
 20
-17.2314509481
 10
90.0830198887
 20
-18.1312087799
 10
89.8458110058
 20
-18.9982481451
 10
89.4613690231
 20
-19.8407486603
 10
88.9133347073
 20
-20.650530709
 10
88.2344265251
 20
-21.4194146744
 10
87.4491833265
 20
-22.1474005565
 10
86.5330662613
 20
-22.818129122
 10
85.5106141797
 20
-23.4397799876
 10
84.3818270816
 20
-24.0041735367
 10
83.1794234336
 20
-24.5031301525
 10
81.8788643858
 20
-24.9448294518
 10
80.5046887881
 20
-25.3210918178
 10
79.0650762572
 20
-25.6155580173
 10
77.5763860264
 20
-25.8282280503
 10
76.030438479
 20
-25.9591019167
 10
74.4435928483
 20
-26.0
 10
74.4435928483
 20
-26.0
 10
73.0285191674
 20
-26.0
 10
73.0285191674
 20
-26.0
 10
73.0285191674
 20
-21.8120362737
 10
73.0285191674
 20
-21.8120362737
 10
74.4435928483
 20
-21.8120362737
 10
74.4435928483
 20
-21.8120362737
 10
76.1449531121
 20
-21.7220604905
 10
77.6990802762
 20
-21.4603127576
 10
79.1223335738
 20
-21.0186134584
 10
80.3983537716
 20
-20.4051422094
 10
80.9709269373
 20
-20.0452390767
 10
81.4617039365
 20
-19.660797094
 10
81.8788643858
 20
-19.259995878
 10
82.2224082852
 20
-18.8428354287
 10
82.4841560181
 20
-18.4011361294
 10
82.6722872012
 20
-17.9430775969
 10
82.7868018343
 20
-17.468659831
 10
82.8276999176
 20
-16.9778828318
 10
82.8276999176
 20
-16.9778828318
 10
82.8276999176
 20
5.2870336974
 10
82.8276999176
 20
5.2870336974
 10
82.7868018343
 20
5.7778106966
 10
82.6722872012
 20
6.2522284625
 10
82.4759764015
 20
6.7102869951
 10
82.2060490519
 20
7.1519862943
 10
81.8625051525
 20
7.5691467436
 10
81.4371650866
 20
7.961768343
 10
80.9300288541
 20
8.3462103256
 10
80.3492760717
 20
8.7061134584
 10
79.0568966406
 20
9.327764324
 10
77.6418229596
 20
9.7694636232
 10
76.1040550289
 20
10.0312113561
 10
74.4435928483
 20
10.1211871393
 10
74.4435928483
 20
10.1211871393
 10
73.0285191674
 20
10.1211871393
 10
73.0285191674
 20
10.1211871393
 10
73.0285191674
 20
13.7856553998
 10
73.0285191674
 20
13.7856553998
 10
74.4435928483
 20
13.7856553998
  0
LWPOLYLINE
  5
71
330
1F
100
AcDbEntity
  8
0
  6
Continuous
 62
     7
100
AcDbPolyline
 90
       26
 70
   128
 43
0.0
 10
58.7469041348
 20
-23.9469162201
 10
58.7469084913
 20
11.9043435697
 10
58.7469084913
 20
11.9043435697
 10
58.8123454246
 20
12.3787613355
 10
58.9922969909
 20
12.7877421682
 10
59.3031224237
 20
13.1067472176
 10
59.7284624897
 20
13.3603153339
 10
60.2683171888
 20
13.5484465169
 10
60.9063272877
 20
13.6793203833
 10
61.6343131698
 20
13.7611165499
 10
62.4604544518
 20
13.7856553998
 10
62.4604544518
 20
13.7856553998
 10
66.0758450124
 20
13.7856553998
 10
66.0758450124
 20
13.7856553998
 10
66.0758450124
 20
-26.0
 10
66.0758450124
 20
-26.0
 10
62.8776149011
 20
-26.0
 10
62.8776149011
 20
-26.0
 10
61.8715220528
 20
-25.97546115
 10
61.0044826876
 20
-25.9100242168
 10
60.2928560387
 20
-25.7955095837
 10
59.7284624897
 20
-25.6319172506
 10
59.3031224237
 20
-25.386528751
 10
58.9922969909
 20
-25.0266256183
 10
58.8123454246
 20
-24.5440282358
 10
58.7469084913
 20
-23.9469162201
  0
LWPOLYLINE
  5
72
330
1F
100
AcDbEntity
  8
0
  6
Continuous
 62
     7
100
AcDbPolyline
 90
       64
 70
   128
 43
0.0
 10
95.1952338219
 20
-25.2147568013
 10
103.2849211665
 20
1.598026587
 10
103.2849211665
 20
1.598026587
 10
106.9166709604
 20
-10.0497475268
 10
106.9166709604
 20
-10.0497475268
 10
104.593659831
 20
-17.6240725474
 10
104.593659831
 20
-17.6240725474
 10
116.4132058945
 20
-17.6240725474
 10
116.4132058945
 20
-17.6240725474
 10
110.556600371
 20
1.7697985367
 10
110.556600371
 20
1.7697985367
 10
110.4584449711
 20
1.598026587
 10
110.4584449711
 20
1.598026587
 10
106.9166709604
 20
13.074028751
 10
106.9166709604
 20
13.074028751
 10
107.2111371599
 20
13.2703395507
 10
107.6037587593
 20
13.4093930338
 10
108.0699969085
 20
13.499368817
 10
108.6343904575
 20
13.5239076669
 10
108.6343904575
 20
13.5239076669
 10
112.4788102844
 20
13.5239076669
 10
112.4788102844
 20
13.5239076669
 10
113.1986165499
 20
13.4911892003
 10
113.738471249
 20
13.3848541838
 10
113.9511412819
 20
13.286698784
 10
114.1310928483
 20
13.1231064509
 10
114.2783259481
 20
12.9022568013
 10
114.3928405812
 20
12.6241498351
 10
114.3928405812
 20
12.6241498351
 10
125.8115854287
 20
-25.0429848516
 10
125.8115854287
 20
-25.0429848516
 10
125.8606631286
 20
-25.4601453009
 10
125.7134300289
 20
-25.7627911171
 10
125.3617065128
 20
-25.9427426834
 10
124.8054925804
 20
-26.0
 10
124.8054925804
 20
-26.0
 10
120.3557811212
 20
-26.0
 10
120.3557811212
 20
-26.0
 10
119.7995671888
 20
-25.9672815334
 10
119.3415086562
 20
-25.8691261336
 10
118.9897851401
 20
-25.6319172506
 10
118.7362170239
 20
-25.198397568
 10
118.7362170239
 20
-25.198397568
 10
117.6319687758
 20
-21.8120362737
 10
117.6319687758
 20
-21.8120362737
 10
103.3830765664
 20
-21.8120362737
 10
103.3830765664
 20
-21.8120362737
 10
102.2706487016
 20
-25.3047325845
 10
102.2706487016
 20
-25.3047325845
 10
102.0579786686
 20
-25.6564561006
 10
101.812590169
 20
-25.8691261336
 10
101.4772258862
 20
-25.9672815334
 10
100.9619100371
 20
-26.0
 10
100.9619100371
 20
-26.0
 10
96.5121985779
 20
-26.0
 10
96.5121985779
 20
-26.0
 10
96.1359362119
 20
-25.9836407667
 10
95.8251107791
 20
-25.9509223001
 10
95.5715426628
 20
-25.8854853669
 10
95.3752318631
 20
-25.8036892003
 10
95.23617838
 20
-25.6891745672
 10
95.1625618302
 20
-25.5583007007
 10
95.1462025969
 20
-25.3947083677
 10
95.1952802968
 20
-25.2147568013
  0
LINE
  5
7F
330
1F
100
AcDbEntity
  8
0
  6
Continuous
 62
     7
370
    25
100
AcDbLine
 10
-115.0279676972
 20
22.5
 30
0.0
 11
116.3374426653
 21
22.5
 31
0.0
  0
LINE
  5
80
330
1F
100
AcDbEntity
  8
0
  6
Continuous
 62
     7
370
    25
100
AcDbLine
 10
116.3374426653
 20
25.0
 30
0.0
 11
-115.0279676972
 21
25.0
 31
0.0
  0
LINE
  5
81
330
1F
100
AcDbEntity
  8
0
  6
Continuous
 62
     7
370
    25
100
AcDbLine
 10
-151.032999826
 20
12.8126908928
 30
0.0
 11
-149.1901931707
 21
10.4798884753
 31
0.0
  0
LINE
  5
82
330
1F
100
AcDbEntity
  8
0
  6
Continuous
 62
     7
370
    25
100
AcDbLine
 10
150.4996681388
 20
10.4798884753
 30
0.0
 11
152.3424747941
 21
12.8126908928
 31
0.0
  0
LINE
  5
83
330
1F
100
AcDbEntity
  8
0
  6
Continuous
 62
     7
370
    25
100
AcDbLine
 10
-115.0279676972
 20
30.0
 30
0.0
 11
115.0279676972
 21
30.0
 31
0.0
  0
LINE
  5
84
330
1F
100
AcDbEntity
  8
0
  6
Continuous
 62
     7
370
    25
100
AcDbLine
 10
184.31
 20
-30.0
 30
0.0
 11
-184.31
 21
-30.0
 31
0.0
  0
ARC
  5
85
330
1F
100
AcDbEntity
  8
0
  6
Continuous
 62
     7
370
    25
100
AcDbCircle
 10
115.0279676972
 20
-40.0
 30
0.0
 40
70.00000000000011
100
AcDbArc
 50
8.2132107017
 51
90.0
  0
ARC
  5
86
330
1F
100
AcDbEntity
  8
0
  6
Continuous
 62
     7
370
    25
100
AcDbCircle
 10
-115.0279676972
 20
-40.0
 30
0.0
 40
70.00000000000017
100
AcDbArc
 50
90.0
 51
171.7867892983
  0
ARC
  5
87
330
1F
100
AcDbEntity
  8
0
  6
Continuous
 62
     7
370
    25
100
AcDbCircle
 10
-110.2104310766
 20
-45.7479639025
 30
0.0
 40
68.41778450029646
100
AcDbArc
 50
94.0377384271
 51
124.7314995658
  0
ARC
  5
88
330
1F
100
AcDbEntity
  8
0
  6
Continuous
 62
     7
370
    25
100
AcDbCircle
 10
111.5199060447
 20
-45.7479639025
 30
0.0
 40
68.41778450029646
100
AcDbArc
 50
55.2685004342
 51
85.9622615729
  0
ARC
  5
89
330
1F
100
AcDbEntity
  8
0
  6
Continuous
 62
     7
370
    25
100
AcDbCircle
 10
113.1085748471
 20
-43.8176449039
 30
0.0
 40
68.89335118501393
100
AcDbArc
 50
55.2855071151
 51
87.3136987774
  0
ARC
  5
8A
330
1F
100
AcDbEntity
  8
0
  6
Continuous
 62
     7
370
    25
100
AcDbCircle
 10
-111.7990998789
 20
-43.8176449039
 30
0.0
 40
68.89335118501378
100
AcDbArc
 50
92.6863012226
 51
124.7144928849
  0
MTEXT
  5
8C
330
1F
100
AcDbEntity
  8
0
  6
Continuous
 62
     7
100
AcDbMText
 10
-184.31
 20
-31.0195663917
 30
0.0
 40
4.83362
 41
0.0
 71
     1
 72
     1
  1
SOLIDWORKS Educational Product.
  7
SLDTEXTSTYLE0
 73
     1
 44
1.0
  0
MTEXT
  5
8D
330
1F
100
AcDbEntity
  8
0
  6
Continuous
 62
     7
100
AcDbMText
 10
-184.31
 20
-38.2699963917
 30
0.0
 40
4.83362
 41
0.0
 71
     1
 72
     1
  1
For Instructional Use Only.
  7
SLDTEXTSTYLE0
 73
     1
 44
1.0
  0
ENDSEC
  0
SECTION
  2
OBJECTS
  0
DICTIONARY
  5
C
330
0
100
AcDbDictionary
281
     1
  3
ACAD_GROUP
350
D
  3
ACAD_LAYOUT
350
1A
  3
ACAD_MLINESTYLE
350
17
  3
ACAD_PLOTSETTINGS
350
19
  3
ACAD_PLOTSTYLENAME
350
E
  3
ACAD_SCALELIST
350
47
  3
DWGPROPS
350
8E
  0
DICTIONARY
  5
D
102
{ACAD_REACTORS
330
C
102
}
330
C
100
AcDbDictionary
281
     1
  0
DICTIONARY
  5
1A
102
{ACAD_REACTORS
330
C
102
}
330
C
100
AcDbDictionary
281
     1
  3
Layout1
350
1E
  3
Layout2
350
26
  3
Model
350
22
  0
DICTIONARY
  5
17
102
{ACAD_REACTORS
330
C
102
}
330
C
100
AcDbDictionary
281
     1
  3
Standard
350
18
  0
DICTIONARY
  5
19
102
{ACAD_REACTORS
330
C
102
}
330
C
100
AcDbDictionary
281
     1
  0
ACDBDICTIONARYWDFLT
  5
E
102
{ACAD_REACTORS
330
C
102
}
330
C
100
AcDbDictionary
281
     1
  3
Normal
350
F
100
AcDbDictionaryWithDefault
340
F
  0
DICTIONARY
  5
47
102
{ACAD_REACTORS
330
C
102
}
330
C
100
AcDbDictionary
281
     1
  3
A0
350
48
  3
A1
350
49
  3
A2
350
4A
  3
A3
350
4B
  3
A4
350
4C
  3
A5
350
4D
  3
A6
350
4E
  3
A7
350
4F
  3
A8
350
50
  3
A9
350
51
  3
B0
350
52
  3
B1
350
53
  3
B2
350
54
  3
B3
350
55
  3
B4
350
56
  3
B5
350
57
  3
B6
350
58
  0
XRECORD
  5
8E
102
{ACAD_REACTORS
330
C
102
}
330
C
100
AcDbXrecord
280
     1
  1
DWGPROPS COOKIE
  2

  3

  4

  6

  7

  8
vitorfilardi
  9

300
=
301
=
302
=
303
=
304
=
305
=
306
=
307
=
308
=
309
=
 40
0.0
 41
2460467.711593183
 42
2460467.711633113
  1

 90
        0
  0
LAYOUT
  5
1E
102
{ACAD_REACTORS
330
1A
102
}
330
1A
100
AcDbPlotSettings
  1

  2
none_device
  4

  6

 40
0.0
 41
0.0
 42
0.0
 43
0.0
 44
0.0
 45
0.0
 46
0.0
 47
0.0
 48
0.0
 49
0.0
140
0.0
141
0.0
142
1.0
143
1.0
 70
   688
 72
     1
 73
     0
 74
     5
  7

 75
    16
147
1.0
148
0.0
149
0.0
100
AcDbLayout
  1
Layout1
 70
     1
 71
     1
 10
0.0
 20
0.0
 11
420.0
 21
297.0
 12
0.0
 22
0.0
 32
0.0
 14
1.0000000000E+20
 24
1.0000000000E+20
 34
1.0000000000E+20
 15
-1.0000000000E+20
 25
-1.0000000000E+20
 35
-1.0000000000E+20
146
0.0
 13
0.0
 23
0.0
 33
0.0
 16
1.0
 26
0.0
 36
0.0
 17
0.0
 27
1.0
 37
0.0
 76
     0
330
1B
  0
LAYOUT
  5
26
102
{ACAD_REACTORS
330
1A
102
}
330
1A
100
AcDbPlotSettings
  1

  2
none_device
  4

  6

 40
0.0
 41
0.0
 42
0.0
 43
0.0
 44
0.0
 45
0.0
 46
0.0
 47
0.0
 48
0.0
 49
0.0
140
0.0
141
0.0
142
1.0
143
1.0
 70
   688
 72
     1
 73
     0
 74
     5
  7

 75
    16
147
1.0
148
0.0
149
0.0
100
AcDbLayout
  1
Layout2
 70
     1
 71
     2
 10
0.0
 20
0.0
 11
0.0
 21
0.0
 12
0.0
 22
0.0
 32
0.0
 14
0.0
 24
0.0
 34
0.0
 15
0.0
 25
0.0
 35
0.0
146
0.0
 13
0.0
 23
0.0
 33
0.0
 16
1.0
 26
0.0
 36
0.0
 17
0.0
 27
1.0
 37
0.0
 76
     0
330
23
  0
LAYOUT
  5
22
102
{ACAD_REACTORS
330
1A
102
}
330
1A
100
AcDbPlotSettings
  1

  2
none_device
  4
ANSI_A_(11.00_x_8.50_Inches)
  6

 40
6.35
 41
19.05
 42
6.35000508
 43
19.05000254
 44
279.4
 45
215.9
 46
133.34999746
 47
88.89999873
 48
0.0
 49
0.0
140
0.0
141
0.0
142
0.0295426184
143
1.0
 70
  1696
 72
     0
 73
     0
 74
     0
  7

 75
     0
147
0.0179189148
148
-1300.4909072572
149
0.0
100
AcDbLayout
  1
Model
 70
     1
 71
     0
 10
0.0
 20
0.0
 11
420.0
 21
297.0
 12
0.0
 22
0.0
 32
0.0
 14
-184.31
 24
-30.0
 34
0.0
 15
184.31
 25
30.0
 35
0.0
146
0.0
 13
0.0
 23
0.0
 33
0.0
 16
1.0
 26
0.0
 36
0.0
 17
0.0
 27
1.0
 37
0.0
 76
     0
330
1F
331
29
  0
MLINESTYLE
  5
18
102
{ACAD_REACTORS
330
17
102
}
330
17
100
AcDbMlineStyle
  2
Standard
 70
     0
  3

 62
   256
 51
90.0
 52
90.0
 71
     2
 49
0.5
 62
   256
  6
BYLAYER
 49
-0.5
 62
   256
  6
BYLAYER
  0
ACDBPLACEHOLDER
  5
F
102
{ACAD_REACTORS
330
E
102
}
330
E
  0
SCALE
  5
48
102
{ACAD_REACTORS
330
47
102
}
330
47
100
AcDbScale
 70
     0
300
1:1
140
1.0
141
1.0
290
     1
  0
SCALE
  5
49
102
{ACAD_REACTORS
330
47
102
}
330
47
100
AcDbScale
 70
     0
300
1:2
140
1.0
141
2.0
290
     0
  0
SCALE
  5
4A
102
{ACAD_REACTORS
330
47
102
}
330
47
100
AcDbScale
 70
     0
300
1:4
140
1.0
141
4.0
290
     0
  0
SCALE
  5
4B
102
{ACAD_REACTORS
330
47
102
}
330
47
100
AcDbScale
 70
     0
300
1:5
140
1.0
141
5.0
290
     0
  0
SCALE
  5
4C
102
{ACAD_REACTORS
330
47
102
}
330
47
100
AcDbScale
 70
     0
300
1:8
140
1.0
141
8.0
290
     0
  0
SCALE
  5
4D
102
{ACAD_REACTORS
330
47
102
}
330
47
100
AcDbScale
 70
     0
300
1:10
140
1.0
141
10.0
290
     0
  0
SCALE
  5
4E
102
{ACAD_REACTORS
330
47
102
}
330
47
100
AcDbScale
 70
     0
300
1:16
140
1.0
141
16.0
290
     0
  0
SCALE
  5
4F
102
{ACAD_REACTORS
330
47
102
}
330
47
100
AcDbScale
 70
     0
300
1:20
140
1.0
141
20.0
290
     0
  0
SCALE
  5
50
102
{ACAD_REACTORS
330
47
102
}
330
47
100
AcDbScale
 70
     0
300
1:30
140
1.0
141
30.0
290
     0
  0
SCALE
  5
51
102
{ACAD_REACTORS
330
47
102
}
330
47
100
AcDbScale
 70
     0
300
1:40
140
1.0
141
40.0
290
     0
  0
SCALE
  5
52
102
{ACAD_REACTORS
330
47
102
}
330
47
100
AcDbScale
 70
     0
300
1:50
140
1.0
141
50.0
290
     0
  0
SCALE
  5
53
102
{ACAD_REACTORS
330
47
102
}
330
47
100
AcDbScale
 70
     0
300
1:100
140
1.0
141
100.0
290
     0
  0
SCALE
  5
54
102
{ACAD_REACTORS
330
47
102
}
330
47
100
AcDbScale
 70
     0
300
2:1
140
2.0
141
1.0
290
     0
  0
SCALE
  5
55
102
{ACAD_REACTORS
330
47
102
}
330
47
100
AcDbScale
 70
     0
300
4:1
140
4.0
141
1.0
290
     0
  0
SCALE
  5
56
102
{ACAD_REACTORS
330
47
102
}
330
47
100
AcDbScale
 70
     0
300
8:1
140
8.0
141
1.0
290
     0
  0
SCALE
  5
57
102
{ACAD_REACTORS
330
47
102
}
330
47
100
AcDbScale
 70
     0
300
10:1
140
10.0
141
1.0
290
     0
  0
SCALE
  5
58
102
{ACAD_REACTORS
330
47
102
}
330
47
100
AcDbScale
 70
     0
300
100:1
140
100.0
141
1.0
290
     0
  0
ENDSEC
  0
EOF
