  0
SECTION
  2
HEADER
  9
$ACADVER
  1
AC1015
  9
$ACADMAINTVER
 70
     6
  9
$DWGCODEPAGE
  3
ANSI_1252
  9
$INSBASE
 10
0.0
 20
0.0
 30
0.0
  9
$EXTMIN
 10
-184.31
 20
-30.0
 30
0.0
  9
$EXTMAX
 10
184.31
 20
30.0
 30
0.0
  9
$LIMMIN
 10
0.0
 20
0.0
  9
$LIMMAX
 10
420.0
 20
297.0
  9
$ORTHOMODE
 70
     0
  9
$REGENMODE
 70
     1
  9
$FILLMODE
 70
     1
  9
$QTEXTMODE
 70
     0
  9
$MIRRTEXT
 70
     1
  9
$LTSCALE
 40
1.0
  9
$ATTMODE
 70
     1
  9
$TEXTSIZE
 40
3.5
  9
$TRACEWID
 40
1.0
  9
$TEXTSTYLE
  7
Standard
  9
$CLAYER
  8
0
  9
$CELTYPE
  6
ByLayer
  9
$CECOLOR
 62
   256
  9
$CELTSCALE
 40
1.0
  9
$DISPSILH
 70
     0
  9
$DIMSCALE
 40
1.0
  9
$DIMASZ
 40
3.302
  9
$DIMEXO
 40
0.0
  9
$DIMDLI
 40
3.75
  9
$DIMRND
 40
0.0
  9
$DIMDLE
 40
0.0
  9
$DIMEXE
 40
1.0
  9
$DIMTP
 40
0.0
  9
$DIMTM
 40
0.0
  9
$DIMTXT
 40
3.5
  9
$DIMCEN
 40
2.5
  9
$DIMTSZ
 40
0.0
  9
$DIMTOL
 70
     0
  9
$DIMLIM
 70
     0
  9
$DIMTIH
 70
     1
  9
$DIMTOH
 70
     1
  9
$DIMSE1
 70
     0
  9
$DIMSE2
 70
     0
  9
$DIMTAD
 70
     1
  9
$DIMZIN
 70
     1
  9
$DIMBLK
  1

  9
$DIMASO
 70
     1
  9
$DIMSHO
 70
     1
  9
$DIMPOST
  1

  9
$DIMAPOST
  1

  9
$DIMALT
 70
     0
  9
$DIMALTD
 70
     3
  9
$DIMALTF
 40
0.0393700787
  9
$DIMLFAC
 40
1.0
  9
$DIMTOFL
 70
     1
  9
$DIMTVP
 40
0.0
  9
$DIMTIX
 70
     0
  9
$DIMSOXD
 70
     0
  9
$DIMSAH
 70
     0
  9
$DIMBLK1
  1

  9
$DIMBLK2
  1

  9
$DIMSTYLE
  2
ISO-25
  9
$DIMCLRD
 70
     0
  9
$DIMCLRE
 70
     0
  9
$DIMCLRT
 70
     0
  9
$DIMTFAC
 40
1.0
  9
$DIMGAP
 40
1.524
  9
$DIMJUST
 70
     0
  9
$DIMSD1
 70
     0
  9
$DIMSD2
 70
     0
  9
$DIMTOLJ
 70
     0
  9
$DIMTZIN
 70
     1
  9
$DIMALTZ
 70
     0
  9
$DIMALTTZ
 70
     0
  9
$DIMUPT
 70
     0
  9
$DIMDEC
 70
     2
  9
$DIMTDEC
 70
     2
  9
$DIMALTU
 70
     2
  9
$DIMALTTD
 70
     3
  9
$DIMTXSTY
  7
Standard
  9
$DIMAUNIT
 70
     0
  9
$DIMADEC
 70
     2
  9
$DIMALTRND
 40
0.0
  9
$DIMAZIN
 70
     0
  9
$DIMDSEP
 70
    44
  9
$DIMATFIT
 70
     3
  9
$DIMFRAC
 70
     0
  9
$DIMLDRBLK
  1

  9
$DIMLUNIT
 70
     2
  9
$DIMLWD
 70
    -2
  9
$DIMLWE
 70
    -2
  9
$DIMTMOVE
 70
     0
  9
$LUNITS
 70
     2
  9
$LUPREC
 70
     2
  9
$SKETCHINC
 40
1.0
  9
$FILLETRAD
 40
0.0
  9
$AUNITS
 70
     0
  9
$AUPREC
 70
     2
  9
$MENU
  1
.
  9
$ELEVATION
 40
0.0
  9
$PELEVATION
 40
0.0
  9
$THICKNESS
 40
0.0
  9
$LIMCHECK
 70
     0
  9
$CHAMFERA
 40
0.0
  9
$CHAMFERB
 40
0.0
  9
$CHAMFERC
 40
0.0
  9
$CHAMFERD
 40
0.0
  9
$SKPOLY
 70
     0
  9
$TDCREATE
 40
2460467.58545353
  9
$TDUCREATE
 40
2460467.71045353
  9
$TDUPDATE
 40
2460467.585482118
  9
$TDUUPDATE
 40
2460467.710482118
  9
$TDINDWG
 40
0.0000000116
  9
$TDUSRTIMER
 40
0.0000000116
  9
$USRTIMER
 70
     1
  9
$ANGBASE
 50
0.0
  9
$ANGDIR
 70
     0
  9
$PDMODE
 70
     0
  9
$PDSIZE
 40
-1.0
  9
$PLINEWID
 40
0.0
  9
$SPLFRAME
 70
     0
  9
$SPLINETYPE
 70
     6
  9
$SPLINESEGS
 70
     8
  9
$HANDSEED
  5
8C
  9
$SURFTAB1
 70
     6
  9
$SURFTAB2
 70
     6
  9
$SURFTYPE
 70
     6
  9
$SURFU
 70
     6
  9
$SURFV
 70
     6
  9
$UCSBASE
  2

  9
$UCSNAME
  2

  9
$UCSORG
 10
0.0
 20
0.0
 30
0.0
  9
$UCSXDIR
 10
1.0
 20
0.0
 30
0.0
  9
$UCSYDIR
 10
0.0
 20
1.0
 30
0.0
  9
$UCSORTHOREF
  2

  9
$UCSORTHOVIEW
 70
     0
  9
$UCSORGTOP
 10
0.0
 20
0.0
 30
0.0
  9
$UCSORGBOTTOM
 10
0.0
 20
0.0
 30
0.0
  9
$UCSORGLEFT
 10
0.0
 20
0.0
 30
0.0
  9
$UCSORGRIGHT
 10
0.0
 20
0.0
 30
0.0
  9
$UCSORGFRONT
 10
0.0
 20
0.0
 30
0.0
  9
$UCSORGBACK
 10
0.0
 20
0.0
 30
0.0
  9
$PUCSBASE
  2

  9
$PUCSNAME
  2

  9
$PUCSORG
 10
0.0
 20
0.0
 30
0.0
  9
$PUCSXDIR
 10
1.0
 20
0.0
 30
0.0
  9
$PUCSYDIR
 10
0.0
 20
1.0
 30
0.0
  9
$PUCSORTHOREF
  2

  9
$PUCSORTHOVIEW
 70
     0
  9
$PUCSORGTOP
 10
0.0
 20
0.0
 30
0.0
  9
$PUCSORGBOTTOM
 10
0.0
 20
0.0
 30
0.0
  9
$PUCSORGLEFT
 10
0.0
 20
0.0
 30
0.0
  9
$PUCSORGRIGHT
 10
0.0
 20
0.0
 30
0.0
  9
$PUCSORGFRONT
 10
0.0
 20
0.0
 30
0.0
  9
$PUCSORGBACK
 10
0.0
 20
0.0
 30
0.0
  9
$USERI1
 70
     0
  9
$USERI2
 70
     0
  9
$USERI3
 70
     0
  9
$USERI4
 70
     0
  9
$USERI5
 70
     0
  9
$USERR1
 40
0.0
  9
$USERR2
 40
0.0
  9
$USERR3
 40
0.0
  9
$USERR4
 40
0.0
  9
$USERR5
 40
0.0
  9
$WORLDVIEW
 70
     1
  9
$SHADEDGE
 70
     3
  9
$SHADEDIF
 70
    70
  9
$TILEMODE
 70
     1
  9
$MAXACTVP
 70
    64
  9
$PINSBASE
 10
0.0
 20
0.0
 30
0.0
  9
$PLIMCHECK
 70
     0
  9
$PEXTMIN
 10
1.0000000000E+20
 20
1.0000000000E+20
 30
1.0000000000E+20
  9
$PEXTMAX
 10
-1.0000000000E+20
 20
-1.0000000000E+20
 30
-1.0000000000E+20
  9
$PLIMMIN
 10
0.0
 20
0.0
  9
$PLIMMAX
 10
420.0
 20
297.0
  9
$UNITMODE
 70
     0
  9
$VISRETAIN
 70
     1
  9
$PLINEGEN
 70
     0
  9
$PSLTSCALE
 70
     1
  9
$TREEDEPTH
 70
  3020
  9
$CMLSTYLE
  2
Standard
  9
$CMLJUST
 70
     0
  9
$CMLSCALE
 40
20.0
  9
$PROXYGRAPHICS
 70
     1
  9
$MEASUREMENT
 70
     1
  9
$CELWEIGHT
370
    -1
  9
$ENDCAPS
280
     0
  9
$JOINSTYLE
280
     0
  9
$LWDISPLAY
290
     1
  9
$INSUNITS
 70
     4
  9
$HYPERLINKBASE
  1

  9
$STYLESHEET
  1

  9
$XEDIT
290
     1
  9
$CEPSNTYPE
380
     0
  9
$PSTYLEMODE
290
     1
  9
$FINGERPRINTGUID
  2
{d497e58e-3910-4064-be86-f73019ba4efe}
  9
$VERSIONGUID
  2
{FAEB1C32-E019-11D5-929B-00C0DF256EC4}
  9
$EXTNAMES
290
     1
  9
$PSVPSCALE
 40
0.0
  9
$OLESTARTUP
290
     0
  0
ENDSEC
  0
SECTION
  2
CLASSES
  0
CLASS
  1
ACDBDICTIONARYWDFLT
  2
AcDbDictionaryWithDefault
  3
ObjectDBX Classes
 90
        0
280
     0
281
     0
  0
CLASS
  1
VISUALSTYLE
  2
AcDbVisualStyle
  3
ObjectDBX Classes
 90
     4095
280
     0
281
     0
  0
CLASS
  1
MATERIAL
  2
AcDbMaterial
  3
ObjectDBX Classes
 90
     1153
280
     0
281
     0
  0
CLASS
  1
SCALE
  2
AcDbScale
  3
ObjectDBX Classes
 90
     1153
280
     0
281
     0
  0
CLASS
  1
TABLESTYLE
  2
AcDbTableStyle
  3
ObjectDBX Classes
 90
     4095
280
     0
281
     0
  0
CLASS
  1
MLEADERSTYLE
  2
AcDbMLeaderStyle
  3
ACDB_MLEADERSTYLE_CLASS
 90
     4095
280
     0
281
     0
  0
CLASS
  1
SUN
  2
AcDbSun
  3
SCENEOE
 90
     1153
280
     0
281
     0
  0
CLASS
  1
ACDBPLACEHOLDER
  2
AcDbPlaceHolder
  3
ObjectDBX Classes
 90
        0
280
     0
281
     0
  0
CLASS
  1
LAYOUT
  2
AcDbLayout
  3
ObjectDBX Classes
 90
        0
280
     0
281
     0
  0
ENDSEC
  0
SECTION
  2
TABLES
  0
TABLE
  2
VPORT
  5
8
330
0
100
AcDbSymbolTable
 70
     1
  0
VPORT
  5
29
330
8
100
AcDbSymbolTableRecord
100
AcDbViewportTableRecord
  2
*Active
 70
     0
 10
0.0
 20
0.0
 11
1.0
 21
1.0
 12
0.0
 22
0.0
 13
0.0
 23
0.0
 14
10.0
 24
10.0
 15
10.0
 25
10.0
 16
0.0
 26
0.0
 36
1.0
 17
0.0
 27
0.0
 37
0.0
 40
61.2
 41
6.1436666667
 42
50.0
 43
0.0
 44
0.0
 50
0.0
 51
0.0
 71
     0
 72
   100
 73
     1
 74
     3
 75
     0
 76
     0
 77
     0
 78
     0
281
     0
 65
     1
110
0.0
120
0.0
130
0.0
111
1.0
121
0.0
131
0.0
112
0.0
122
1.0
132
0.0
 79
     0
146
0.0
  0
ENDTAB
  0
TABLE
  2
LTYPE
  5
5
330
0
100
AcDbSymbolTable
 70
     6
  0
LTYPE
  5
14
330
5
100
AcDbSymbolTableRecord
100
AcDbLinetypeTableRecord
  2
ByBlock
 70
     0
  3

 72
    65
 73
     0
 40
0.0
  0
LTYPE
  5
15
330
5
100
AcDbSymbolTableRecord
100
AcDbLinetypeTableRecord
  2
ByLayer
 70
     0
  3

 72
    65
 73
     0
 40
0.0
  0
LTYPE
  5
16
330
5
100
AcDbSymbolTableRecord
100
AcDbLinetypeTableRecord
  2
Continuous
 70
     0
  3
Solid line
 72
    65
 73
     0
 40
0.0
  0
LTYPE
  5
5E
330
5
100
AcDbSymbolTableRecord
100
AcDbLinetypeTableRecord
  2
HIDDEN
 70
     0
  3
Hidden __ __ __ __ __ __ __ __ __ __ __ __ __ __
 72
    65
 73
     2
 40
1.905
 49
1.27
 74
     0
 49
-0.635
 74
     0
  0
LTYPE
  5
5F
330
5
100
AcDbSymbolTableRecord
100
AcDbLinetypeTableRecord
  2
PHANTOM
 70
     0
  3
Phantom ______  __  __  ______  __  __  ______
 72
    65
 73
     6
 40
12.7
 49
6.35
 74
     0
 49
-1.27
 74
     0
 49
1.27
 74
     0
 49
-1.27
 74
     0
 49
1.27
 74
     0
 49
-1.27
 74
     0
  0
LTYPE
  5
60
330
5
100
AcDbSymbolTableRecord
100
AcDbLinetypeTableRecord
  2
CENTER
 70
     0
  3
Center ____ _ ____ _ ____ _ ____ _ ____ _ ____
 72
    65
 73
     4
 40
10.16
 49
6.35
 74
     0
 49
-1.27
 74
     0
 49
1.27
 74
     0
 49
-1.27
 74
     0
  0
LTYPE
  5
61
330
5
100
AcDbSymbolTableRecord
100
AcDbLinetypeTableRecord
  2
CENTERX2
 70
     0
  3
Center (2x) ________  __  ________  __  _____
 72
    65
 73
     4
 40
20.32
 49
12.7
 74
     0
 49
-2.54
 74
     0
 49
2.54
 74
     0
 49
-2.54
 74
     0
  0
LTYPE
  5
62
330
5
100
AcDbSymbolTableRecord
100
AcDbLinetypeTableRecord
  2
DOT2
 70
     0
  3
Dot (.5x) ........................................
 72
    65
 73
     2
 40
0.635
 49
0.0
 74
     0
 49
-0.635
 74
     0
  0
ENDTAB
  0
TABLE
  2
LAYER
  5
2
330
0
100
AcDbSymbolTable
 70
     1
  0
LAYER
  5
10
330
2
100
AcDbSymbolTableRecord
100
AcDbLayerTableRecord
  2
0
 70
     0
 62
     7
  6
Continuous
370
    -3
390
F
  0
ENDTAB
  0
TABLE
  2
STYLE
  5
3
330
0
100
AcDbSymbolTable
 70
     2
  0
STYLE
  5
11
330
3
100
AcDbSymbolTableRecord
100
AcDbTextStyleTableRecord
  2
Standard
 70
     0
 40
0.0
 41
1.0
 50
0.0
 71
     0
 42
3.5
  3
txt
  4

  0
STYLE
  5
88
330
3
100
AcDbSymbolTableRecord
100
AcDbTextStyleTableRecord
  2
SLDTEXTSTYLE0
 70
     0
 40
0.0
 41
0.7
 50
0.0
 71
     0
 42
3.5
  3
TXT
  4

  0
ENDTAB
  0
TABLE
  2
VIEW
  5
6
330
0
100
AcDbSymbolTable
 70
     0
  0
ENDTAB
  0
TABLE
  2
UCS
  5
7
330
0
100
AcDbSymbolTable
 70
     0
  0
ENDTAB
  0
TABLE
  2
APPID
  5
9
330
0
100
AcDbSymbolTable
 70
     1
  0
APPID
  5
12
330
9
100
AcDbSymbolTableRecord
100
AcDbRegAppTableRecord
  2
ACAD
 70
     0
  0
ENDTAB
  0
TABLE
  2
DIMSTYLE
  5
A
330
0
100
AcDbSymbolTable
 70
     1
100
AcDbDimStyleTable
  0
DIMSTYLE
105
27
330
A
100
AcDbSymbolTableRecord
100
AcDbDimStyleTableRecord
  2
ISO-25
 70
     0
 41
2.5
 42
0.625
 43
3.75
 44
1.25
 73
     0
 74
     0
 77
     1
 78
     8
140
2.5
141
2.5
143
0.0393700787
147
0.625
171
     3
172
     1
178
     0
271
     2
272
     2
274
     3
278
    44
283
     0
284
     8
340
11
  0
ENDTAB
  0
TABLE
  2
BLOCK_RECORD
  5
1
330
0
100
AcDbSymbolTable
 70
     1
  0
BLOCK_RECORD
  5
1F
330
1
100
AcDbSymbolTableRecord
100
AcDbBlockTableRecord
  2
*Model_Space
340
22
  0
BLOCK_RECORD
  5
1B
330
1
100
AcDbSymbolTableRecord
100
AcDbBlockTableRecord
  2
*Paper_Space
340
1E
  0
BLOCK_RECORD
  5
23
330
1
100
AcDbSymbolTableRecord
100
AcDbBlockTableRecord
  2
*Paper_Space0
340
26
  0
ENDTAB
  0
ENDSEC
  0
SECTION
  2
BLOCKS
  0
BLOCK
  5
20
330
1F
100
AcDbEntity
  8
0
100
AcDbBlockBegin
  2
*Model_Space
 70
     0
 10
0.0
 20
0.0
 30
0.0
  3
*Model_Space
  1

  0
ENDBLK
  5
21
330
1F
100
AcDbEntity
  8
0
100
AcDbBlockEnd
  0
BLOCK
  5
1C
330
1B
100
AcDbEntity
 67
     1
  8
0
100
AcDbBlockBegin
  2
*Paper_Space
 70
     0
 10
0.0
 20
0.0
 30
0.0
  3
*Paper_Space
  1

  0
ENDBLK
  5
1D
330
1B
100
AcDbEntity
 67
     1
  8
0
100
AcDbBlockEnd
  0
BLOCK
  5
24
330
23
100
AcDbEntity
  8
0
100
AcDbBlockBegin
  2
*Paper_Space0
 70
     0
 10
0.0
 20
0.0
 30
0.0
  3
*Paper_Space0
  1

  0
ENDBLK
  5
25
330
23
100
AcDbEntity
  8
0
100
AcDbBlockEnd
  0
ENDSEC
  0
SECTION
  2
ENTITIES
  0
LINE
  5
63
330
1F
100
AcDbEntity
  8
0
  6
CENTERX2
 62
     7
100
AcDbLine
 10
-125.0
 20
-26.0
 30
0.0
 11
125.0
 21
-26.0
 31
0.0
  0
LWPOLYLINE
  5
64
330
1F
100
AcDbEntity
  8
0
  6
Continuous
 62
     7
100
AcDbPolyline
 90
       35
 70
   128
 43
0.0
 10
-122.9059696198
 20
-24.4785913026
 10
-122.9060181369
 20
11.9943193528
 10
-122.9060181369
 20
11.9943193528
 10
-122.8569404369
 20
12.296965169
 10
-122.7015277205
 20
12.5750721352
 10
-122.4397799876
 20
12.8286402514
 10
-122.0798768549
 20
13.0658491344
 10
-121.6463571723
 20
13.262159934
 10
-121.1719394064
 20
13.4012134171
 10
-120.6648031739
 20
13.4911892003
 10
-120.1167688582
 20
13.5157280503
 10
-120.1167688582
 20
13.5157280503
 10
-118.4644862943
 20
13.5157280503
 10
-118.4644862943
 20
13.5157280503
 10
-117.9164519786
 20
13.4911892003
 10
-117.4011361294
 20
13.4012134171
 10
-116.9103591303
 20
13.262159934
 10
-116.4604802143
 20
13.0658491344
 10
-116.0760382317
 20
12.8286402514
 10
-115.7979312655
 20
12.5750721352
 10
-115.6343389324
 20
12.296965169
 10
-115.5770816158
 20
11.9943193528
 10
-115.5770816158
 20
11.9943193528
 10
-115.5770816158
 20
-26.0
 10
-115.5770816158
 20
-26.0
 10
-120.1167688582
 20
-26.0
 10
-120.1167688582
 20
-26.0
 10
-120.6648031739
 20
-25.97546115
 10
-121.1719394064
 20
-25.8854853669
 10
-121.6463571723
 20
-25.7464318838
 10
-122.0798768549
 20
-25.5501210841
 10
-122.4397799876
 20
-25.3129122012
 10
-122.7015277205
 20
-25.0593440849
 10
-122.8569404369
 20
-24.7812371187
 10
-122.9060181369
 20
-24.4785913026
  0
LWPOLYLINE
  5
65
330
1F
100
AcDbEntity
  8
0
  6
Continuous
 62
     7
100
AcDbPolyline
 90
       26
 70
   128
 43
0.0
 10
-108.2481145859
 20
-26.0
 10
-108.2481450948
 20
-21.8692935903
 10
-108.2481450948
 20
-21.8692935903
 10
-94.3018987016
 20
-21.8120362737
 10
-94.3018987016
 20
-21.8120362737
 10
-93.7620440025
 20
-21.8447547403
 10
-93.2630873866
 20
-21.9347305235
 10
-92.7886696208
 20
-22.0819636232
 10
-92.3469703215
 20
-22.2946336562
 10
-91.9707079555
 20
-22.5400221558
 10
-91.7089602226
 20
-22.8099495054
 10
-91.5453678895
 20
-23.1044157049
 10
-91.4962901896
 20
-23.4234207543
 10
-91.4962901896
 20
-23.4234207543
 10
-91.4962901896
 20
-24.3886155194
 10
-91.4962901896
 20
-24.3886155194
 10
-91.5453678895
 20
-24.7076205688
 10
-91.7089602226
 20
-25.0020867683
 10
-91.9707079555
 20
-25.2720141179
 10
-92.3469703215
 20
-25.5255822341
 10
-92.7886696208
 20
-25.7300726505
 10
-93.2630873866
 20
-25.8773057502
 10
-93.7620440025
 20
-25.9672815334
 10
-94.3018987016
 20
-26.0
 10
-94.3018987016
 20
-26.0
 10
-108.2481450948
 20
-26.0
  0
LWPOLYLINE
  5
66
330
1F
100
AcDbEntity
  8
0
  6
Continuous
 62
     7
100
AcDbPolyline
 90
       64
 70
   128
 43
0.0
 10
-87.5046253204
 20
-25.2147568013
 10
-79.4149963932
 20
1.598026587
 10
-79.4149963932
 20
1.598026587
 10
-75.7832465993
 20
-10.0497475268
 10
-75.7832465993
 20
-10.0497475268
 10
-78.1062577288
 20
-17.6240725474
 10
-78.1062577288
 20
-17.6240725474
 10
-66.2867116653
 20
-17.6240725474
 10
-66.2867116653
 20
-17.6240725474
 10
-72.1433171888
 20
1.7697985367
 10
-72.1433171888
 20
1.7697985367
 10
-72.2414725886
 20
1.598026587
 10
-72.2414725886
 20
1.598026587
 10
-75.7832465993
 20
13.074028751
 10
-75.7832465993
 20
13.074028751
 10
-75.4887803998
 20
13.2703395507
 10
-75.0961588005
 20
13.4093930338
 10
-74.6299206513
 20
13.499368817
 10
-74.0655271022
 20
13.5239076669
 10
-74.0655271022
 20
13.5239076669
 10
-70.2211072754
 20
13.5239076669
 10
-70.2211072754
 20
13.5239076669
 10
-69.5013010099
 20
13.4911892003
 10
-68.9614463108
 20
13.3848541838
 10
-68.7487762778
 20
13.286698784
 10
-68.5688247115
 20
13.1231064509
 10
-68.4215916117
 20
12.9022568013
 10
-68.3070769786
 20
12.6241498351
 10
-68.3070769786
 20
12.6241498351
 10
-56.8883321311
 20
-25.0429848516
 10
-56.8883321311
 20
-25.0429848516
 10
-56.8392544312
 20
-25.4601453009
 10
-56.9864875309
 20
-25.7627911171
 10
-57.338211047
 20
-25.9427426834
 10
-57.8944249794
 20
-26.0
 10
-57.8944249794
 20
-26.0
 10
-62.3441364386
 20
-26.0
 10
-62.3441364386
 20
-26.0
 10
-62.900350371
 20
-25.9672815334
 10
-63.3584089035
 20
-25.8691261336
 10
-63.7101324196
 20
-25.6319172506
 10
-63.9637005359
 20
-25.198397568
 10
-63.9637005359
 20
-25.198397568
 10
-65.067948784
 20
-21.8120362737
 10
-65.067948784
 20
-21.8120362737
 10
-79.3168409934
 20
-21.8120362737
 10
-79.3168409934
 20
-21.8120362737
 10
-80.4292688582
 20
-25.3047325845
 10
-80.4292688582
 20
-25.3047325845
 10
-80.6419388912
 20
-25.6564561006
 10
-80.8873273908
 20
-25.8691261336
 10
-81.2226916735
 20
-25.9672815334
 10
-81.7380075227
 20
-26.0
 10
-81.7380075227
 20
-26.0
 10
-86.1877189819
 20
-26.0
 10
-86.1877189819
 20
-26.0
 10
-86.5639813479
 20
-25.9836407667
 10
-86.8748067807
 20
-25.9509223001
 10
-87.1283748969
 20
-25.8854853669
 10
-87.3246856966
 20
-25.8036892003
 10
-87.4637391797
 20
-25.6891745672
 10
-87.5373557296
 20
-25.5583007007
 10
-87.5537149629
 20
-25.3947083677
 10
-87.504637263
 20
-25.2147568013
  0
LWPOLYLINE
  5
67
330
1F
100
AcDbEntity
  8
0
  6
Continuous
 62
     7
100
AcDbPolyline
 90
      101
 70
   128
 43
0.0
 10
-35.9321534634
 20
-4.4876082028
 10
-34.1898959192
 20
-4.3976324196
 10
-32.6030502885
 20
-4.1195254534
 10
-31.1716173743
 20
-3.6778261542
 10
-29.9201360264
 20
-3.1052529885
 10
-29.3802813273
 20
-2.7698887057
 10
-28.9058635614
 20
-2.4018059563
 10
-28.5132419621
 20
-2.009184357
 10
-28.1942369126
 20
-1.583844291
 10
-27.948848413
 20
-1.1421449918
 10
-27.7688968467
 20
-0.6840864592
 10
-27.6625618302
 20
-0.2260279266
 10
-27.6298433636
 20
0.2483898392
 10
-27.6298433636
 20
0.2483898392
 10
-27.6053045136
 20
1.4180750206
 10
-27.5316879637
 20
2.5550417354
 10
-27.4989694971
 20
3.7001880668
 10
-27.6298433636
 20
4.8698732481
 10
-27.6298433636
 20
4.8698732481
 10
-27.6707414468
 20
5.344291014
 10
-27.7934356966
 20
5.8023495466
 10
-27.9979261129
 20
6.2522284625
 10
-28.2842126958
 20
6.6939277617
 10
-28.6441158285
 20
7.1192678277
 10
-29.0612762778
 20
7.511889427
 10
-29.552053277
 20
7.8799721764
 10
-30.1000875927
 20
8.2153364592
 10
-31.3515689406
 20
8.7960892415
 10
-32.7830018549
 20
9.2296089242
 10
-34.3698474856
 20
9.5077158904
 10
-36.1121058326
 20
9.5976916735
 10
-36.1121058326
 20
9.5976916735
 10
-38.1324711459
 20
9.5976916735
 10
-38.1324711459
 20
9.5976916735
 10
-38.1324711459
 20
13.262159934
 10
-38.1324711459
 20
13.262159934
 10
-36.316596249
 20
13.262159934
 10
-36.316596249
 20
13.262159934
 10
-34.8115467848
 20
13.2212618508
 10
-33.322856554
 20
13.098567601
 10
-31.8587051731
 20
12.9022568013
 10
-30.4109130256
 20
12.6159702185
 10
-29.0121985779
 20
12.272426319
 10
-27.7034599134
 20
11.8634454864
 10
-26.4765174155
 20
11.4053869538
 10
-25.3395507007
 20
10.8900711047
 10
-24.2925597692
 20
10.317497939
 10
-23.3519038541
 20
9.6958470734
 10
-22.5094033388
 20
9.0169388912
 10
-21.7732378401
 20
8.2889530091
 10
-21.1679462077
 20
7.5200690437
 10
-20.7180672918
 20
6.7266462284
 10
-20.431780709
 20
5.9086845631
 10
-20.3009068425
 20
5.0580044312
 10
-20.3009068425
 20
5.0580044312
 10
-20.2027514427
 20
2.375090169
 10
-20.3009068425
 20
-0.2996444765
 10
-20.3009068425
 20
-0.2996444765
 10
-20.3990622424
 20
-0.9376545754
 10
-20.595373042
 20
-1.5674850577
 10
-20.8980188582
 20
-2.19731554
 10
-21.2988200742
 20
-2.8189664056
 10
-21.7814174567
 20
-3.4160784213
 10
-22.3376313891
 20
-3.9968312036
 10
-22.975641488
 20
-4.5448655194
 10
-23.6790885202
 20
-5.0765406018
 10
-24.4479724856
 20
-5.5754972176
 10
-25.2659341509
 20
-6.0417353669
 10
-26.1411531327
 20
-6.4834346661
 10
-27.0654498145
 20
-6.8924154988
 10
-28.0388241962
 20
-7.2523186315
 10
-29.0694558945
 20
-7.5549644477
 10
-30.1491652927
 20
-7.8085325639
 10
-31.2861320074
 20
-8.0048433636
 10
-31.2861320074
 20
-8.0048433636
 10
-21.4951308739
 20
-23.5788334707
 10
-21.4951308739
 20
-23.5788334707
 10
-21.3478977741
 20
-23.8814792869
 10
-21.3151793075
 20
-24.1677658697
 10
-21.396975474
 20
-24.4540524526
 10
-21.5932862737
 20
-24.7239798021
 10
-21.8713932399
 20
-24.9693683017
 10
-22.2149371393
 20
-25.1738587181
 10
-22.6157383553
 20
-25.3456306678
 10
-23.0819765045
 20
-25.4765045342
 10
-23.0819765045
 20
-25.4765045342
 10
-24.7751571517
 20
-25.9263834501
 10
-24.7751571517
 20
-25.9263834501
 10
-25.1432399011
 20
-25.9836407667
 10
-25.6667353669
 20
-26.0
 10
-25.6667353669
 20
-26.0
 10
-26.4928766488
 20
-25.9345630668
 10
-27.1799644477
 20
-25.7464318838
 10
-27.73617838
 20
-25.4274268343
 10
-28.1533388293
 20
-24.985727535
 10
-28.1533388293
 20
-24.985727535
 10
-37.9525195796
 20
-9.4362762778
 10
-37.9525195796
 20
-9.4362762778
 10
-37.9525195796
 20
-4.4876082028
 10
-37.9525195796
 20
-4.4876082028
 10
-35.9321542663
 20
-4.4876082028
  0
LWPOLYLINE
  5
68
330
1F
100
AcDbEntity
  8
0
  6
Continuous
 62
     7
100
AcDbPolyline
 90
       35
 70
   128
 43
0.0
 10
-52.2341132164
 20
11.7980085532
 10
-52.1850525556
 20
12.0924747527
 10
-52.0296398392
 20
12.3705817189
 10
-51.7678921063
 20
12.6159702185
 10
-51.4079889736
 20
12.8368198681
 10
-50.974469291
 20
13.0249510511
 10
-50.5000515251
 20
13.1558249176
 10
-49.9929152927
 20
13.2376210841
 10
-49.4448809769
 20
13.262159934
 10
-49.4448809769
 20
13.262159934
 10
-44.9051937345
 20
13.262159934
 10
-44.9051937345
 20
13.262159934
 10
-44.9051937345
 20
-24.5358486191
 10
-44.9051937345
 20
-24.5358486191
 10
-44.9542714345
 20
-24.8303148186
 10
-45.1096841509
 20
-25.1084217848
 10
-45.3714318838
 20
-25.3538102844
 10
-45.7313350165
 20
-25.5828395507
 10
-46.1648546991
 20
-25.7627911171
 10
-46.6310928483
 20
-25.8936649835
 10
-47.1464086974
 20
-25.97546115
 10
-47.6944430132
 20
-26.0
 10
-47.6944430132
 20
-26.0
 10
-49.4448809769
 20
-26.0
 10
-49.4448809769
 20
-26.0
 10
-49.9929152927
 20
-25.97546115
 10
-50.5000515251
 20
-25.8936649835
 10
-50.974469291
 20
-25.7627911171
 10
-51.4079889736
 20
-25.5828395507
 10
-51.7678921063
 20
-25.3538102844
 10
-52.0296398392
 20
-25.1084217848
 10
-52.1850525556
 20
-24.8303148186
 10
-52.2341302556
 20
-24.5358486191
 10
-52.2341302556
 20
-24.5358486191
 10
-52.2341302556
 20
11.7980085532
  0
LWPOLYLINE
  5
69
330
1F
100
AcDbEntity
  8
0
  6
Continuous
 62
     7
100
AcDbPolyline
 90
       60
 70
   128
 43
0.0
 10
-15.5894458294
 20
-17.4032228978
 10
-15.5894476505
 20
4.6981012984
 10
-15.5894476505
 20
4.6981012984
 10
-15.5321903339
 20
5.4588056472
 10
-15.3522387675
 20
6.1949711459
 10
-15.057772568
 20
6.922957028
 10
-14.6487917354
 20
7.6345836768
 10
-14.1334758862
 20
8.3216714757
 10
-13.5200046373
 20
8.9760408079
 10
-12.8247372218
 20
9.5813324402
 10
-12.0313144064
 20
10.1539056059
 10
-11.1560954246
 20
10.6855806884
 10
-10.2072598928
 20
11.1845373042
 10
-9.1929874279
 20
11.6344162201
 10
-8.0969187964
 20
12.0515766694
 10
-6.9435928483
 20
12.4196594188
 10
-5.7657280503
 20
12.7304848516
 10
-4.546965169
 20
12.9840529678
 10
-3.3036634378
 20
13.1803637675
 10
-3.3036634378
 20
13.1803637675
 10
-3.3036634378
 20
9.0496573578
 10
-3.3036634378
 20
9.0496573578
 10
-4.358833986
 20
8.7306523083
 10
-5.3158491344
 20
8.3462103256
 10
-6.1583496496
 20
7.8881517931
 10
-6.8945151484
 20
7.3564767106
 10
-7.4916271641
 20
6.7675443116
 10
-7.91696723
 20
6.145893446
 10
-8.1787149629
 20
5.4669852638
 10
-8.2605111294
 20
4.755358615
 10
-8.2605111294
 20
4.755358615
 10
-8.2605111294
 20
-17.1251159316
 10
-8.2605111294
 20
-17.1251159316
 10
-8.1787149629
 20
-17.8122037304
 10
-7.91696723
 20
-18.4665730627
 10
-7.4916271641
 20
-19.0882239283
 10
-6.8945151484
 20
-19.6689767106
 10
-6.1583496496
 20
-20.2006517931
 10
-5.3158491344
 20
-20.6668899423
 10
-4.358833986
 20
-21.0758707749
 10
-3.3036634378
 20
-21.4194146744
 10
-3.3036634378
 20
-21.4194146744
 10
-3.3036634378
 20
-25.8854853669
 10
-3.3036634378
 20
-25.8854853669
 10
-4.546965169
 20
-25.6891745672
 10
-5.7657280503
 20
-25.4356064509
 10
-6.9435928483
 20
-25.1247810181
 10
-8.0969187964
 20
-24.7566982688
 10
-9.1929874279
 20
-24.3395378195
 10
-10.2072598928
 20
-23.8814792869
 10
-11.1560954246
 20
-23.3743430544
 10
-12.0313144064
 20
-22.8344883553
 10
-12.8247372218
 20
-22.253735573
 10
-13.5200046373
 20
-21.640264324
 10
-14.1334758862
 20
-21.0022542251
 10
-14.6487917354
 20
-20.3233460429
 10
-15.057772568
 20
-19.6198990107
 10
-15.3522387675
 20
-18.9000927453
 10
-15.5321903339
 20
-18.1557476298
 10
-15.5894476505
 20
-17.4032228978
  0
LWPOLYLINE
  5
6A
330
1F
100
AcDbEntity
  8
0
  6
Continuous
 62
     7
100
AcDbPolyline
 90
       66
 70
   128
 43
0.0
 10
3.13369371
 20
-8.724649629
 10
12.9901329349
 20
-8.724649629
 10
12.9901329349
 20
-8.724649629
 10
13.2191622012
 20
-8.724649629
 10
13.4645507007
 20
-8.724649629
 10
13.718118817
 20
-8.724649629
 10
13.9389684666
 20
-8.724649629
 10
13.9389684666
 20
-8.724649629
 10
14.6260562655
 20
-8.7819069456
 10
15.2395275144
 20
-8.961858512
 10
15.4930956307
 20
-9.1090916117
 10
15.673047197
 20
-9.3217616447
 10
15.7875618302
 20
-9.6080482275
 10
15.8202802968
 20
-9.9597717436
 10
15.8202802968
 20
-9.9597717436
 10
15.8202802968
 20
-17.5177375309
 10
15.8202802968
 20
-17.5177375309
 10
15.7630229802
 20
-18.2784418796
 10
15.5830714138
 20
-19.0146073784
 10
15.2886052143
 20
-19.7507728772
 10
14.8796243817
 20
-20.462399526
 10
14.3643085326
 20
-21.1494873248
 10
13.7590169002
 20
-21.7956770404
 10
13.0555698681
 20
-22.4091482894
 10
12.2621470528
 20
-22.9817214551
 10
11.3869280709
 20
-23.5133965375
 10
10.4544517725
 20
-24.0041735367
 10
9.4483589242
 20
-24.4540524526
 10
8.3768291426
 20
-24.8712129019
 10
7.2480420445
 20
-25.2392956513
 10
6.0619976298
 20
-25.5501210841
 10
4.8268755153
 20
-25.8036892003
 10
3.5344960841
 20
-26.0
 10
3.5344960841
 20
-26.0
 10
3.5344960841
 20
-21.5339293075
 10
3.5344960841
 20
-21.5339293075
 10
4.5896666323
 20
-21.214924258
 10
5.5466817807
 20
-20.8223026587
 10
6.389182296
 20
-20.3560645095
 10
7.1253477947
 20
-19.8162098104
 10
7.7224598104
 20
-19.2190977947
 10
8.1477998763
 20
-18.5892673124
 10
8.4095476092
 20
-17.9348979802
 10
8.4913437758
 20
-17.2396305647
 10
8.4913437758
 20
-17.2396305647
 10
8.4913437758
 20
-11.8656224237
 10
8.4913437758
 20
-11.8656224237
 10
3.2318502679
 20
-11.8656224237
 10
3.2318502679
 20
-11.8656224237
 10
2.4138886026
 20
-11.8329039571
 10
1.7676988871
 20
-11.7347485573
 10
1.5223103875
 20
-11.6365931575
 10
1.3505384378
 20
-11.4811804411
 10
1.2442034213
 20
-11.2603307914
 10
1.2114849547
 20
-10.9740442086
 10
1.2114849547
 20
-10.9740442086
 10
1.2114849547
 20
-9.8207182605
 10
1.2114849547
 20
-9.8207182605
 10
1.2360238046
 20
-9.4935335944
 10
1.3259995878
 20
-9.2317858615
 10
1.4650530709
 20
-9.0354750618
 10
1.6613638706
 20
-8.912780812
 10
2.1357816364
 20
-8.7737273289
 10
2.6265586356
 20
-8.724649629
 10
2.6265586356
 20
-8.724649629
 10
3.1336948681
 20
-8.724649629
  0
LWPOLYLINE
  5
6B
330
1F
100
AcDbEntity
  8
0
  6
Continuous
 62
     7
100
AcDbPolyline
 90
       48
 70
   128
 43
0.0
 10
3.5344958305
 20
13.1803637675
 10
4.8268755153
 20
12.9840529678
 10
6.0619976298
 20
12.7304848516
 10
7.2480420445
 20
12.4196594188
 10
8.3768291426
 20
12.0515766694
 10
9.4483589242
 20
11.6344162201
 10
10.4544517725
 20
11.1763576876
 10
11.3869280709
 20
10.6692214551
 10
12.2621470528
 20
10.129366756
 10
13.0555698681
 20
9.5486139736
 10
13.7590169002
 20
8.9351427246
 10
14.3643085326
 20
8.2889530091
 10
14.8796243817
 20
7.6100448269
 10
15.2886052143
 20
6.9065977947
 10
15.5830714138
 20
6.1949711459
 10
15.7630229802
 20
5.4506260305
 10
15.8202802968
 20
4.6981012984
 10
15.8202802968
 20
4.6981012984
 10
15.7793822135
 20
4.2318631492
 10
15.6648675804
 20
3.8310619332
 10
15.4685567807
 20
3.5120568838
 10
15.1904498145
 20
3.2584887675
 10
14.8060078318
 20
3.0703575845
 10
14.2743327494
 20
2.9394837181
 10
13.6036041838
 20
2.8576875515
 10
12.7856425185
 20
2.8331487016
 10
12.7856425185
 20
2.8331487016
 10
11.6323165705
 20
2.8331487016
 10
11.6323165705
 20
2.8331487016
 10
10.8061752885
 20
2.8658671682
 10
10.1272671063
 20
2.9558429514
 10
9.5792327906
 20
3.1030760511
 10
9.170251958
 20
3.3157460841
 10
8.8757857585
 20
3.5856734336
 10
8.6631157255
 20
3.9210377164
 10
8.532241859
 20
4.3054796991
 10
8.4913437758
 20
4.755358615
 10
8.4913437758
 20
4.755358615
 10
8.4095476092
 20
5.4669852638
 10
8.1477998763
 20
6.145893446
 10
7.7224598104
 20
6.7675443116
 10
7.1253477947
 20
7.3564767106
 10
6.389182296
 20
7.8881517931
 10
5.5466817807
 20
8.3462103256
 10
4.5896666323
 20
8.7306523083
 10
3.5344960841
 20
9.0496573578
 10
3.5344960841
 20
9.0496573578
 10
3.5344960841
 20
13.1803637675
  0
LWPOLYLINE
  5
6C
330
1F
100
AcDbEntity
  8
0
  6
Continuous
 62
     7
100
AcDbPolyline
 90
       64
 70
   128
 43
0.0
 10
20.85891366
 20
-25.2147568013
 10
28.9485650247
 20
1.598026587
 10
28.9485650247
 20
1.598026587
 10
32.5803148186
 20
-10.0497475268
 10
32.5803148186
 20
-10.0497475268
 10
30.2573036892
 20
-17.6240725474
 10
30.2573036892
 20
-17.6240725474
 10
42.0768497527
 20
-17.6240725474
 10
42.0768497527
 20
-17.6240725474
 10
36.2202442292
 20
1.7697985367
 10
36.2202442292
 20
1.7697985367
 10
36.1220888293
 20
1.598026587
 10
36.1220888293
 20
1.598026587
 10
32.5803148186
 20
13.074028751
 10
32.5803148186
 20
13.074028751
 10
32.8747810181
 20
13.2703395507
 10
33.2674026175
 20
13.4093930338
 10
33.7336407667
 20
13.499368817
 10
34.2980343157
 20
13.5239076669
 10
34.2980343157
 20
13.5239076669
 10
38.1424541426
 20
13.5239076669
 10
38.1424541426
 20
13.5239076669
 10
38.8622604081
 20
13.4911892003
 10
39.4021151072
 20
13.3848541838
 10
39.6147851401
 20
13.286698784
 10
39.7947367065
 20
13.1231064509
 10
39.9419698063
 20
12.9022568013
 10
40.0564844394
 20
12.6241498351
 10
40.0564844394
 20
12.6241498351
 10
51.4752292869
 20
-25.0429848516
 10
51.4752292869
 20
-25.0429848516
 10
51.5243069868
 20
-25.4601453009
 10
51.3770738871
 20
-25.7627911171
 10
51.025350371
 20
-25.9427426834
 10
50.4691364386
 20
-26.0
 10
50.4691364386
 20
-26.0
 10
46.0194249794
 20
-26.0
 10
46.0194249794
 20
-26.0
 10
45.463211047
 20
-25.9672815334
 10
45.0051525144
 20
-25.8691261336
 10
44.6534289984
 20
-25.6319172506
 10
44.3998608821
 20
-25.198397568
 10
44.3998608821
 20
-25.198397568
 10
43.295612634
 20
-21.8120362737
 10
43.295612634
 20
-21.8120362737
 10
29.0467204246
 20
-21.8120362737
 10
29.0467204246
 20
-21.8120362737
 10
27.9342925598
 20
-25.3047325845
 10
27.9342925598
 20
-25.3047325845
 10
27.7216225268
 20
-25.6564561006
 10
27.4762340272
 20
-25.8691261336
 10
27.1408697444
 20
-25.9672815334
 10
26.6255538953
 20
-26.0
 10
26.6255538953
 20
-26.0
 10
22.1758424361
 20
-26.0
 10
22.1758424361
 20
-26.0
 10
21.7995800701
 20
-25.9836407667
 10
21.4887546373
 20
-25.9509223001
 10
21.235186521
 20
-25.8854853669
 10
21.0388757214
 20
-25.8036892003
 10
20.8998222383
 20
-25.6891745672
 10
20.8262056884
 20
-25.5583007007
 10
20.8098464551
 20
-25.3947083677
 10
20.858924155
 20
-25.2147568013
  0
LWPOLYLINE
  5
6D
330
1F
100
AcDbEntity
  8
0
  6
Continuous
 62
     7
100
AcDbPolyline
 90
       76
 70
   128
 43
0.0
 10
72.3496079445
 20
13.7856553998
 10
73.9364566158
 20
13.7447573166
 10
75.4824041632
 20
13.6138834501
 10
76.9710943941
 20
13.4012134171
 10
78.410706925
 20
13.098567601
 10
79.7848825227
 20
12.7304848516
 10
81.0854415705
 20
12.2887855523
 10
82.2878452185
 20
11.7898289365
 10
83.4166323166
 20
11.2254353875
 10
84.4390843982
 20
10.6037845218
 10
85.3552014633
 20
9.9330559563
 10
86.140444662
 20
9.2050700742
 10
86.8193528442
 20
8.4361861088
 10
87.3673871599
 20
7.6264040602
 10
87.7518291426
 20
6.7839035449
 10
87.9890380256
 20
5.9168641797
 10
88.0626545754
 20
5.0171063479
 10
88.0626545754
 20
5.0171063479
 10
88.0626545754
 20
-17.2314509481
 10
88.0626545754
 20
-17.2314509481
 10
87.9890380256
 20
-18.1312087799
 10
87.7518291426
 20
-18.9982481451
 10
87.3673871599
 20
-19.8407486603
 10
86.8193528442
 20
-20.650530709
 10
86.140444662
 20
-21.4194146744
 10
85.3552014633
 20
-22.1474005565
 10
84.4390843982
 20
-22.818129122
 10
83.4166323166
 20
-23.4397799876
 10
82.2878452185
 20
-24.0041735367
 10
81.0854415705
 20
-24.5031301525
 10
79.7848825227
 20
-24.9448294518
 10
78.410706925
 20
-25.3210918178
 10
76.9710943941
 20
-25.6155580173
 10
75.4824041632
 20
-25.8282280503
 10
73.9364566158
 20
-25.9591019167
 10
72.3496109852
 20
-26.0
 10
72.3496109852
 20
-26.0
 10
70.9345373042
 20
-26.0
 10
70.9345373042
 20
-26.0
 10
70.9345373042
 20
-21.8120362737
 10
70.9345373042
 20
-21.8120362737
 10
72.3496109852
 20
-21.8120362737
 10
72.3496109852
 20
-21.8120362737
 10
74.050971249
 20
-21.7220604905
 10
75.605098413
 20
-21.4603127576
 10
77.0283517106
 20
-21.0186134584
 10
78.3043719085
 20
-20.4051422094
 10
78.8769450742
 20
-20.0452390767
 10
79.3677220734
 20
-19.660797094
 10
79.7848825227
 20
-19.259995878
 10
80.1284264221
 20
-18.8428354287
 10
80.390174155
 20
-18.4011361294
 10
80.578305338
 20
-17.9430775969
 10
80.6928199711
 20
-17.468659831
 10
80.7337180544
 20
-16.9778828318
 10
80.7337180544
 20
-16.9778828318
 10
80.7337180544
 20
5.2870336974
 10
80.7337180544
 20
5.2870336974
 10
80.6928199711
 20
5.7778106966
 10
80.578305338
 20
6.2522284625
 10
80.3819945383
 20
6.7102869951
 10
80.1120671888
 20
7.1519862943
 10
79.7685232894
 20
7.5691467436
 10
79.3431832234
 20
7.961768343
 10
78.8360469909
 20
8.3462103256
 10
78.2552942086
 20
8.7061134584
 10
76.9629147774
 20
9.327764324
 10
75.5478410965
 20
9.7694636232
 10
74.0100731657
 20
10.0312113561
 10
72.3496109852
 20
10.1211871393
 10
72.3496109852
 20
10.1211871393
 10
70.9345373042
 20
10.1211871393
 10
70.9345373042
 20
10.1211871393
 10
70.9345373042
 20
13.7856553998
 10
70.9345373042
 20
13.7856553998
 10
72.3496109852
 20
13.7856553998
  0
LWPOLYLINE
  5
6E
330
1F
100
AcDbEntity
  8
0
  6
Continuous
 62
     7
100
AcDbPolyline
 90
       26
 70
   128
 43
0.0
 10
56.6529035568
 20
-23.9469162201
 10
56.6529266282
 20
11.9043435697
 10
56.6529266282
 20
11.9043435697
 10
56.7183635614
 20
12.3787613355
 10
56.8983151278
 20
12.7877421682
 10
57.2091405606
 20
13.1067472176
 10
57.6344806265
 20
13.3603153339
 10
58.1743353256
 20
13.5484465169
 10
58.8123454246
 20
13.6793203833
 10
59.5403313067
 20
13.7611165499
 10
60.3664725886
 20
13.7856553998
 10
60.3664725886
 20
13.7856553998
 10
63.9818631492
 20
13.7856553998
 10
63.9818631492
 20
13.7856553998
 10
63.9818631492
 20
-26.0
 10
63.9818631492
 20
-26.0
 10
60.7836330379
 20
-26.0
 10
60.7836330379
 20
-26.0
 10
59.7775401896
 20
-25.97546115
 10
58.9105008244
 20
-25.9100242168
 10
58.1988741756
 20
-25.7955095837
 10
57.6344806265
 20
-25.6319172506
 10
57.2091405606
 20
-25.386528751
 10
56.8983151278
 20
-25.0266256183
 10
56.7183635614
 20
-24.5440282358
 10
56.6529266282
 20
-23.9469162201
  0
LWPOLYLINE
  5
6F
330
1F
100
AcDbEntity
  8
0
  6
Continuous
 62
     7
100
AcDbPolyline
 90
       64
 70
   128
 43
0.0
 10
93.1012630463
 20
-25.2147568013
 10
101.1909393034
 20
1.598026587
 10
101.1909393034
 20
1.598026587
 10
104.8226890973
 20
-10.0497475268
 10
104.8226890973
 20
-10.0497475268
 10
102.4996779678
 20
-17.6240725474
 10
102.4996779678
 20
-17.6240725474
 10
114.3192240313
 20
-17.6240725474
 10
114.3192240313
 20
-17.6240725474
 10
108.4626185078
 20
1.7697985367
 10
108.4626185078
 20
1.7697985367
 10
108.364463108
 20
1.598026587
 10
108.364463108
 20
1.598026587
 10
104.8226890973
 20
13.074028751
 10
104.8226890973
 20
13.074028751
 10
105.1171552968
 20
13.2703395507
 10
105.5097768961
 20
13.4093930338
 10
105.9760150453
 20
13.499368817
 10
106.5404085944
 20
13.5239076669
 10
106.5404085944
 20
13.5239076669
 10
110.3848284213
 20
13.5239076669
 10
110.3848284213
 20
13.5239076669
 10
111.1046346867
 20
13.4911892003
 10
111.6444893858
 20
13.3848541838
 10
111.8571594188
 20
13.286698784
 10
112.0371109852
 20
13.1231064509
 10
112.1843440849
 20
12.9022568013
 10
112.2988587181
 20
12.6241498351
 10
112.2988587181
 20
12.6241498351
 10
123.7176035655
 20
-25.0429848516
 10
123.7176035655
 20
-25.0429848516
 10
123.7666812655
 20
-25.4601453009
 10
123.6194481657
 20
-25.7627911171
 10
123.2677246496
 20
-25.9427426834
 10
122.7115107172
 20
-26.0
 10
122.7115107172
 20
-26.0
 10
118.261799258
 20
-26.0
 10
118.261799258
 20
-26.0
 10
117.7055853256
 20
-25.9672815334
 10
117.2475267931
 20
-25.8691261336
 10
116.895803277
 20
-25.6319172506
 10
116.6422351608
 20
-25.198397568
 10
116.6422351608
 20
-25.198397568
 10
115.5379869126
 20
-21.8120362737
 10
115.5379869126
 20
-21.8120362737
 10
101.2890947032
 20
-21.8120362737
 10
101.2890947032
 20
-21.8120362737
 10
100.1766668384
 20
-25.3047325845
 10
100.1766668384
 20
-25.3047325845
 10
99.9639968054
 20
-25.6564561006
 10
99.7186083059
 20
-25.8691261336
 10
99.3832440231
 20
-25.9672815334
 10
98.8679281739
 20
-26.0
 10
98.8679281739
 20
-26.0
 10
94.4182167148
 20
-26.0
 10
94.4182167148
 20
-26.0
 10
94.0419543487
 20
-25.9836407667
 10
93.7311289159
 20
-25.9509223001
 10
93.4775607997
 20
-25.8854853669
 10
93.28125
 20
-25.8036892003
 10
93.1421965169
 20
-25.6891745672
 10
93.068579967
 20
-25.5583007007
 10
93.0522207337
 20
-25.3947083677
 10
93.1012984336
 20
-25.2147568013
  0
LINE
  5
7C
330
1F
100
AcDbEntity
  8
0
  6
Continuous
 62
     7
370
    25
100
AcDbLine
 10
-115.0279676972
 20
22.5
 30
0.0
 11
115.0279676972
 21
22.5
 31
0.0
  0
LINE
  5
7D
330
1F
100
AcDbEntity
  8
0
  6
Continuous
 62
     7
370
    25
100
AcDbLine
 10
115.0279676972
 20
25.0
 30
0.0
 11
-115.0279676972
 21
25.0
 31
0.0
  0
LINE
  5
7E
330
1F
100
AcDbEntity
  8
0
  6
Continuous
 62
     7
370
    25
100
AcDbLine
 10
-151.7207196769
 20
12.3300007298
 30
0.0
 11
-149.9614699825
 21
9.9372957434
 31
0.0
  0
LINE
  5
7F
330
1F
100
AcDbEntity
  8
0
  6
Continuous
 62
     7
370
    25
100
AcDbLine
 10
149.9614699825
 20
9.9372957434
 30
0.0
 11
151.7207196769
 21
12.3300007298
 31
0.0
  0
LINE
  5
80
330
1F
100
AcDbEntity
  8
0
  6
Continuous
 62
     7
370
    25
100
AcDbLine
 10
-115.0279676972
 20
30.0
 30
0.0
 11
115.0279676972
 21
30.0
 31
0.0
  0
LINE
  5
81
330
1F
100
AcDbEntity
  8
0
  6
Continuous
 62
     7
370
    25
100
AcDbLine
 10
184.31
 20
-30.0
 30
0.0
 11
-184.31
 21
-30.0
 31
0.0
  0
ARC
  5
82
330
1F
100
AcDbEntity
  8
0
  6
Continuous
 62
     7
370
    25
100
AcDbCircle
 10
115.0279676972
 20
-40.0
 30
0.0
 40
70.00000000000011
100
AcDbArc
 50
8.2132107017
 51
90.0
  0
ARC
  5
83
330
1F
100
AcDbEntity
  8
0
  6
Continuous
 62
     7
370
    25
100
AcDbCircle
 10
-115.0279676972
 20
-40.0
 30
0.0
 40
70.00000000000017
100
AcDbArc
 50
90.0
 51
171.7867892983
  0
ARC
  5
84
330
1F
100
AcDbEntity
  8
0
  6
Continuous
 62
     7
370
    25
100
AcDbCircle
 10
-110.2104310766
 20
-45.7479639025
 30
0.0
 40
68.41778450029618
100
AcDbArc
 50
94.0377384271
 51
125.521223053
  0
ARC
  5
85
330
1F
100
AcDbEntity
  8
0
  6
Continuous
 62
     7
370
    25
100
AcDbCircle
 10
110.2104310766
 20
-45.7479639025
 30
0.0
 40
68.41778450029607
100
AcDbArc
 50
54.478776947
 51
85.9622615729
  0
ARC
  5
86
330
1F
100
AcDbEntity
  8
0
  6
Continuous
 62
     7
370
    25
100
AcDbCircle
 10
111.7990998789
 20
-43.8176449039
 30
0.0
 40
68.89335118501417
100
AcDbArc
 50
54.5867367338
 51
87.3136987774
  0
ARC
  5
87
330
1F
100
AcDbEntity
  8
0
  6
Continuous
 62
     7
370
    25
100
AcDbCircle
 10
-111.7990998789
 20
-43.8176449039
 30
0.0
 40
68.89335118501445
100
AcDbArc
 50
92.6863012226
 51
125.4132632662
  0
MTEXT
  5
89
330
1F
100
AcDbEntity
  8
0
  6
Continuous
 62
     7
100
AcDbMText
 10
-184.31
 20
-31.0195663917
 30
0.0
 40
4.83362
 41
0.0
 71
     1
 72
     1
  1
SOLIDWORKS Educational Product.
  7
SLDTEXTSTYLE0
 73
     1
 44
1.0
  0
MTEXT
  5
8A
330
1F
100
AcDbEntity
  8
0
  6
Continuous
 62
     7
100
AcDbMText
 10
-184.31
 20
-38.2699963917
 30
0.0
 40
4.83362
 41
0.0
 71
     1
 72
     1
  1
For Instructional Use Only.
  7
SLDTEXTSTYLE0
 73
     1
 44
1.0
  0
ENDSEC
  0
SECTION
  2
OBJECTS
  0
DICTIONARY
  5
C
330
0
100
AcDbDictionary
281
     1
  3
ACAD_GROUP
350
D
  3
ACAD_LAYOUT
350
1A
  3
ACAD_MLINESTYLE
350
17
  3
ACAD_PLOTSETTINGS
350
19
  3
ACAD_PLOTSTYLENAME
350
E
  3
ACAD_SCALELIST
350
47
  3
DWGPROPS
350
8B
  0
DICTIONARY
  5
D
102
{ACAD_REACTORS
330
C
102
}
330
C
100
AcDbDictionary
281
     1
  0
DICTIONARY
  5
1A
102
{ACAD_REACTORS
330
C
102
}
330
C
100
AcDbDictionary
281
     1
  3
Layout1
350
1E
  3
Layout2
350
26
  3
Model
350
22
  0
DICTIONARY
  5
17
102
{ACAD_REACTORS
330
C
102
}
330
C
100
AcDbDictionary
281
     1
  3
Standard
350
18
  0
DICTIONARY
  5
19
102
{ACAD_REACTORS
330
C
102
}
330
C
100
AcDbDictionary
281
     1
  0
ACDBDICTIONARYWDFLT
  5
E
102
{ACAD_REACTORS
330
C
102
}
330
C
100
AcDbDictionary
281
     1
  3
Normal
350
F
100
AcDbDictionaryWithDefault
340
F
  0
DICTIONARY
  5
47
102
{ACAD_REACTORS
330
C
102
}
330
C
100
AcDbDictionary
281
     1
  3
A0
350
48
  3
A1
350
49
  3
A2
350
4A
  3
A3
350
4B
  3
A4
350
4C
  3
A5
350
4D
  3
A6
350
4E
  3
A7
350
4F
  3
A8
350
50
  3
A9
350
51
  3
B0
350
52
  3
B1
350
53
  3
B2
350
54
  3
B3
350
55
  3
B4
350
56
  3
B5
350
57
  3
B6
350
58
  0
XRECORD
  5
8B
102
{ACAD_REACTORS
330
C
102
}
330
C
100
AcDbXrecord
280
     1
  1
DWGPROPS COOKIE
  2

  3

  4

  6

  7

  8
vitorfilardi
  9

300
=
301
=
302
=
303
=
304
=
305
=
306
=
307
=
308
=
309
=
 40
0.0
 41
2460467.71045353
 42
2460467.710482118
  1

 90
        0
  0
LAYOUT
  5
1E
102
{ACAD_REACTORS
330
1A
102
}
330
1A
100
AcDbPlotSettings
  1

  2
none_device
  4

  6

 40
0.0
 41
0.0
 42
0.0
 43
0.0
 44
0.0
 45
0.0
 46
0.0
 47
0.0
 48
0.0
 49
0.0
140
0.0
141
0.0
142
1.0
143
1.0
 70
   688
 72
     1
 73
     0
 74
     5
  7

 75
    16
147
1.0
148
0.0
149
0.0
100
AcDbLayout
  1
Layout1
 70
     1
 71
     1
 10
0.0
 20
0.0
 11
420.0
 21
297.0
 12
0.0
 22
0.0
 32
0.0
 14
1.0000000000E+20
 24
1.0000000000E+20
 34
1.0000000000E+20
 15
-1.0000000000E+20
 25
-1.0000000000E+20
 35
-1.0000000000E+20
146
0.0
 13
0.0
 23
0.0
 33
0.0
 16
1.0
 26
0.0
 36
0.0
 17
0.0
 27
1.0
 37
0.0
 76
     0
330
1B
  0
LAYOUT
  5
26
102
{ACAD_REACTORS
330
1A
102
}
330
1A
100
AcDbPlotSettings
  1

  2
none_device
  4

  6

 40
0.0
 41
0.0
 42
0.0
 43
0.0
 44
0.0
 45
0.0
 46
0.0
 47
0.0
 48
0.0
 49
0.0
140
0.0
141
0.0
142
1.0
143
1.0
 70
   688
 72
     1
 73
     0
 74
     5
  7

 75
    16
147
1.0
148
0.0
149
0.0
100
AcDbLayout
  1
Layout2
 70
     1
 71
     2
 10
0.0
 20
0.0
 11
0.0
 21
0.0
 12
0.0
 22
0.0
 32
0.0
 14
0.0
 24
0.0
 34
0.0
 15
0.0
 25
0.0
 35
0.0
146
0.0
 13
0.0
 23
0.0
 33
0.0
 16
1.0
 26
0.0
 36
0.0
 17
0.0
 27
1.0
 37
0.0
 76
     0
330
23
  0
LAYOUT
  5
22
102
{ACAD_REACTORS
330
1A
102
}
330
1A
100
AcDbPlotSettings
  1

  2
none_device
  4
ANSI_A_(11.00_x_8.50_Inches)
  6

 40
6.35
 41
19.05
 42
6.35000508
 43
19.05000254
 44
279.4
 45
215.9
 46
133.34999746
 47
88.89999873
 48
0.0
 49
0.0
140
0.0
141
0.0
142
0.0295426184
143
1.0
 70
  1696
 72
     0
 73
     0
 74
     0
  7

 75
     0
147
0.0179189148
148
-1300.4909072572
149
0.0
100
AcDbLayout
  1
Model
 70
     1
 71
     0
 10
0.0
 20
0.0
 11
420.0
 21
297.0
 12
0.0
 22
0.0
 32
0.0
 14
-184.31
 24
-30.0
 34
0.0
 15
184.31
 25
30.0
 35
0.0
146
0.0
 13
0.0
 23
0.0
 33
0.0
 16
1.0
 26
0.0
 36
0.0
 17
0.0
 27
1.0
 37
0.0
 76
     0
330
1F
331
29
  0
MLINESTYLE
  5
18
102
{ACAD_REACTORS
330
17
102
}
330
17
100
AcDbMlineStyle
  2
Standard
 70
     0
  3

 62
   256
 51
90.0
 52
90.0
 71
     2
 49
0.5
 62
   256
  6
BYLAYER
 49
-0.5
 62
   256
  6
BYLAYER
  0
ACDBPLACEHOLDER
  5
F
102
{ACAD_REACTORS
330
E
102
}
330
E
  0
SCALE
  5
48
102
{ACAD_REACTORS
330
47
102
}
330
47
100
AcDbScale
 70
     0
300
1:1
140
1.0
141
1.0
290
     1
  0
SCALE
  5
49
102
{ACAD_REACTORS
330
47
102
}
330
47
100
AcDbScale
 70
     0
300
1:2
140
1.0
141
2.0
290
     0
  0
SCALE
  5
4A
102
{ACAD_REACTORS
330
47
102
}
330
47
100
AcDbScale
 70
     0
300
1:4
140
1.0
141
4.0
290
     0
  0
SCALE
  5
4B
102
{ACAD_REACTORS
330
47
102
}
330
47
100
AcDbScale
 70
     0
300
1:5
140
1.0
141
5.0
290
     0
  0
SCALE
  5
4C
102
{ACAD_REACTORS
330
47
102
}
330
47
100
AcDbScale
 70
     0
300
1:8
140
1.0
141
8.0
290
     0
  0
SCALE
  5
4D
102
{ACAD_REACTORS
330
47
102
}
330
47
100
AcDbScale
 70
     0
300
1:10
140
1.0
141
10.0
290
     0
  0
SCALE
  5
4E
102
{ACAD_REACTORS
330
47
102
}
330
47
100
AcDbScale
 70
     0
300
1:16
140
1.0
141
16.0
290
     0
  0
SCALE
  5
4F
102
{ACAD_REACTORS
330
47
102
}
330
47
100
AcDbScale
 70
     0
300
1:20
140
1.0
141
20.0
290
     0
  0
SCALE
  5
50
102
{ACAD_REACTORS
330
47
102
}
330
47
100
AcDbScale
 70
     0
300
1:30
140
1.0
141
30.0
290
     0
  0
SCALE
  5
51
102
{ACAD_REACTORS
330
47
102
}
330
47
100
AcDbScale
 70
     0
300
1:40
140
1.0
141
40.0
290
     0
  0
SCALE
  5
52
102
{ACAD_REACTORS
330
47
102
}
330
47
100
AcDbScale
 70
     0
300
1:50
140
1.0
141
50.0
290
     0
  0
SCALE
  5
53
102
{ACAD_REACTORS
330
47
102
}
330
47
100
AcDbScale
 70
     0
300
1:100
140
1.0
141
100.0
290
     0
  0
SCALE
  5
54
102
{ACAD_REACTORS
330
47
102
}
330
47
100
AcDbScale
 70
     0
300
2:1
140
2.0
141
1.0
290
     0
  0
SCALE
  5
55
102
{ACAD_REACTORS
330
47
102
}
330
47
100
AcDbScale
 70
     0
300
4:1
140
4.0
141
1.0
290
     0
  0
SCALE
  5
56
102
{ACAD_REACTORS
330
47
102
}
330
47
100
AcDbScale
 70
     0
300
8:1
140
8.0
141
1.0
290
     0
  0
SCALE
  5
57
102
{ACAD_REACTORS
330
47
102
}
330
47
100
AcDbScale
 70
     0
300
10:1
140
10.0
141
1.0
290
     0
  0
SCALE
  5
58
102
{ACAD_REACTORS
330
47
102
}
330
47
100
AcDbScale
 70
     0
300
100:1
140
100.0
141
1.0
290
     0
  0
ENDSEC
  0
EOF
